// Created by Crowbar 0.74
version 1
nodes
  0 "body" -1
  1 "l-upperarm-movement" -1
  2 "l-upperarm" 1
  3 "l-forearm" 2
  4 "lwrist" 3
  5 "l-index-low" 4
  6 "l-index-mid" 5
  7 "l-index-tip" 6
  8 "l-middle-low" 4
  9 "l-middle-mid" 8
  10 "l-middle-tip" 9
  11 "l-ring-low" 4
  12 "l-ring-mid" 11
  13 "l-ring-tip" 12
  14 "l-pinky-low" 4
  15 "l-pinky-mid" 14
  16 "l-pinky-tip" 15
  17 "l-thumb-low" 4
  18 "l-thumb-mid" 17
  19 "l-thumb-tip" 18
  20 "l-forearm-twist" 3
  21 "r-upperarm-movement" -1
  22 "r-upperarm" 21
  23 "r-forearm" 22
  24 "r-rist" 23
  25 "r-index-low" 24
  26 "r-index-mid" 25
  27 "r-index-tip" 26
  28 "r-pinky-low" 24
  29 "r-pinky-mid" 28
  30 "r-pinky-tip" 29
  31 "r-middle-low" 24
  32 "r-middle-mid" 31
  33 "r-middle-tip" 32
  34 "r-ring-low" 24
  35 "r-ring-mid" 34
  36 "r-ring-tip" 35
  37 "r-thumb-low" 24
  38 "r-thumb-mid" 37
  39 "r-thumb-tip" 38
  40 "r-forearm-twist" 23
  41 "Shell" -1
  42 "trigger" -1
  43 "pump." -1
  44 "ValveBiped.Bip01_R_UpperArm" 22
  45 "ValveBiped.Bip01_R_Forearm" 23
  46 "ValveBiped.Bip01_R_Hand" 24
  47 "ValveBiped.Bip01_R_Finger0" 37
  48 "ValveBiped.Bip01_R_Finger01" 38
  49 "ValveBiped.Bip01_R_Finger02" 39
  50 "ValveBiped.Bip01_R_Finger1" 25
  51 "ValveBiped.Bip01_R_Finger11" 26
  52 "ValveBiped.Bip01_R_Finger12" 27
  53 "ValveBiped.Bip01_R_Finger2" 31
  54 "ValveBiped.Bip01_R_Finger21" 32
  55 "ValveBiped.Bip01_R_Finger22" 33
  56 "ValveBiped.Bip01_R_Finger3" 34
  57 "ValveBiped.Bip01_R_Finger31" 35
  58 "ValveBiped.Bip01_R_Finger32" 36
  59 "ValveBiped.Bip01_R_Finger4" 28
  60 "ValveBiped.Bip01_R_Finger41" 29
  61 "ValveBiped.Bip01_R_Finger42" 30
  62 "ValveBiped.Bip01_L_UpperArm" 2
  63 "ValveBiped.Bip01_L_Forearm" 3
  64 "ValveBiped.Bip01_L_Hand" 4
  65 "ValveBiped.Bip01_L_Finger0" 17
  66 "ValveBiped.Bip01_L_Finger01" 18
  67 "ValveBiped.Bip01_L_Finger02" 19
  68 "ValveBiped.Bip01_L_Finger1" 5
  69 "ValveBiped.Bip01_L_Finger11" 6
  70 "ValveBiped.Bip01_L_Finger12" 7
  71 "ValveBiped.Bip01_L_Finger2" 8
  72 "ValveBiped.Bip01_L_Finger21" 9
  73 "ValveBiped.Bip01_L_Finger22" 10
  74 "ValveBiped.Bip01_L_Finger3" 11
  75 "ValveBiped.Bip01_L_Finger31" 12
  76 "ValveBiped.Bip01_L_Finger32" 13
  77 "ValveBiped.Bip01_L_Finger4" 14
  78 "ValveBiped.Bip01_L_Finger41" 15
  79 "ValveBiped.Bip01_L_Finger42" 16
end
skeleton
  time 0
    0 -2.335938 -2.996094 -3.587891 0.000000 0.000000 -0.000039
    1 7.195313 4.312500 -6.410156 -0.275968 0.424923 -1.104175
    2 0.000000 0.000000 0.000000 2.499906 0.221061 -0.622615
    3 10.859375 -0.000001 -0.000001 0.263528 0.006782 0.975798
    4 11.117188 -0.015495 -0.057343 -0.439714 -0.076172 -0.480030
    5 4.460938 0.096558 -1.193359 1.700635 -0.250355 0.126839
    6 1.534180 -0.000001 -0.000001 0.009042 0.848532 0.011307
    7 0.923828 0.000000 0.000000 0.002695 1.027849 0.003260
    8 4.582031 -0.205322 -0.326172 1.346533 -0.259536 0.638898
    9 1.709961 -0.000007 0.000000 3.036021 1.434016 3.039811
    10 0.998047 0.000000 0.000000 0.026837 -0.314590 -0.022355
    11 4.332031 -0.048065 0.604980 1.141283 -0.111227 1.109616
    12 1.571289 0.000003 0.000003 0.269056 1.478394 0.281975
    13 1.039063 0.000006 0.000000 0.006016 -0.410155 0.011865
    14 3.871094 0.338867 1.439453 1.121923 0.266193 1.782702
    15 1.197266 -0.000006 -0.000016 0.081066 0.567625 0.082907
    16 0.866211 0.000000 -0.000001 -0.008129 -0.487940 -0.000955
    17 1.191406 1.062500 -1.191406 3.072296 0.219014 0.151813
    18 1.987305 -0.000002 0.000000 -0.025970 0.053561 -0.091013
    19 1.217773 0.000004 0.000002 -0.020700 -0.169366 0.027834
    20 9.578125 0.084412 -0.006870 1.606992 0.268796 1.517345
    21 -1.511719 11.007813 -4.187500 1.244308 0.425693 -2.037295
    22 0.000000 0.000000 0.000000 2.785285 -0.396270 -0.375403
    23 10.859375 0.000016 -0.000004 -0.279330 0.007173 -2.116317
    24 11.117188 0.015495 -0.057343 -0.701936 -0.729903 1.221545
    25 4.460938 -0.096558 -1.193359 -1.692327 0.052480 -0.517339
    26 1.534180 0.000004 0.000000 -0.001689 0.150425 -0.007557
    27 0.923828 0.000000 0.000000 -0.000168 0.591517 -0.001706
    28 3.871094 -0.338867 1.439453 -1.480019 0.189903 -1.416936
    29 1.197266 0.000004 -0.000017 -0.127146 1.001777 -0.146524
    30 0.866211 -0.000001 -0.000003 0.009351 0.733784 0.001142
    31 4.582031 0.205322 -0.326172 -1.539698 0.007204 -1.420212
    32 1.709961 0.000006 -0.000002 -0.026879 1.095842 -0.020771
    33 0.998047 -0.000001 0.000001 -0.016608 0.557664 0.006715
    34 4.332031 0.048065 0.604980 -1.502394 0.106974 -1.508525
    35 1.571289 0.000006 -0.000001 -0.060351 1.044535 -0.069431
    36 1.039063 -0.000008 0.000001 -0.009609 0.637010 -0.018240
    37 1.191406 -1.062500 -1.191406 2.688815 0.147029 -0.438545
    38 1.987305 0.000004 0.000002 0.027278 0.315271 0.098085
    39 1.217773 -0.000005 0.000003 0.021152 0.266873 -0.018769
    40 9.578125 -0.084412 -0.006874 -1.606853 -0.254477 -1.498648
    41 -0.871094 11.210938 -11.585938 0.000000 0.000000 -0.000001
    42 -2.337891 -5.980469 -3.394531 0.000000 0.000000 -0.000039
    43 -2.332031 -16.890625 -3.265625 0.000000 0.000000 -0.000039
    44 0.000000 0.000000 0.000000 0.000000 0.000000 0.000000
    45 0.000000 0.000000 0.000000 0.000000 0.000000 0.000000
    46 0.000000 0.000000 0.000000 0.000000 0.000000 0.000000
    47 0.000000 0.000000 0.000000 -1.570796 0.000000 0.000000
    48 0.000000 0.000000 0.000000 -1.570796 0.000000 0.000000
    49 0.000000 0.000000 0.000000 -1.570796 0.000000 0.000000
    50 0.000000 0.000000 0.000000 1.570796 0.000000 0.000000
    51 0.000000 0.000000 0.000000 1.570796 0.000000 0.000000
    52 0.000000 0.000000 0.000000 1.570796 0.000000 0.000000
    53 0.000000 0.000000 0.000000 1.570796 0.000000 0.000000
    54 0.000000 0.000000 0.000000 1.570796 0.000000 0.000000
    55 0.000000 0.000000 0.000000 1.570796 0.000000 0.000000
    56 0.000000 0.000000 0.000000 1.570796 0.000000 0.000000
    57 0.000000 0.000000 0.000000 1.570796 0.000000 0.000000
    58 0.000000 0.000000 0.000000 1.570796 0.000000 0.000000
    59 0.000000 0.000000 0.000000 1.570796 0.000000 0.000000
    60 0.000000 0.000000 0.000000 1.570796 0.000000 0.000000
    61 0.000000 0.000000 0.000000 1.570796 0.000000 0.000000
    62 0.000000 0.000001 0.000000 0.000000 0.000000 0.000000
    63 0.000000 0.000000 0.000000 0.000000 0.000000 0.000000
    64 0.000000 0.000000 0.000000 -3.141593 0.000000 0.000000
    65 0.000000 0.000000 0.000000 -1.570796 0.000000 0.000000
    66 0.000000 0.000000 0.000000 -1.570796 0.000000 0.000000
    67 0.000000 0.000000 0.000000 -1.570796 0.000000 0.000000
    68 0.000000 0.000000 0.000000 1.570796 0.000000 0.000000
    69 0.000000 0.000000 0.000000 1.570796 0.000000 0.000000
    70 0.000000 0.000000 0.000000 1.570796 0.000000 0.000000
    71 0.000000 0.000000 0.000001 1.570796 0.000000 0.000000
    72 0.000000 0.000000 0.000000 1.570796 0.000000 0.000000
    73 0.000000 0.000000 0.000000 1.570796 0.000000 0.000000
    74 0.000000 0.000000 0.000000 1.570796 0.000000 0.000000
    75 0.000000 0.000000 0.000000 1.570796 0.000000 0.000000
    76 -0.000001 0.000000 0.000000 1.570796 0.000000 0.000000
    77 0.000000 0.000000 0.000000 1.570796 0.000000 0.000000
    78 0.000000 0.000000 0.000000 1.570796 0.000000 0.000000
    79 0.000000 0.000000 0.000000 1.570796 0.000000 0.000000
  time 1
    0 -2.335938 -2.996094 -3.587891 0.000000 0.000000 -0.000039
    1 7.195313 4.312500 -6.410156 -0.275968 0.424923 -1.104175
    2 0.000000 0.000000 0.000000 2.499906 0.221061 -0.622615
    3 10.859375 -0.000001 -0.000001 0.263528 0.006782 0.975798
    4 11.117188 -0.015495 -0.057343 -0.439714 -0.076172 -0.480030
    5 4.460938 0.096558 -1.193359 1.700635 -0.250355 0.126839
    6 1.534180 -0.000001 -0.000001 0.009042 0.848532 0.011307
    7 0.923828 0.000000 0.000000 0.002695 1.027849 0.003260
    8 4.582031 -0.205322 -0.326172 1.346533 -0.259536 0.638898
    9 1.709961 -0.000007 0.000000 3.036021 1.434016 3.039811
    10 0.998047 0.000000 0.000000 0.026837 -0.314590 -0.022355
    11 4.332031 -0.048065 0.604980 1.141283 -0.111227 1.109616
    12 1.571289 0.000003 0.000003 0.269056 1.478394 0.281975
    13 1.039063 0.000006 0.000000 0.006016 -0.410155 0.011865
    14 3.871094 0.338867 1.439453 1.121923 0.266193 1.782702
    15 1.197266 -0.000006 -0.000016 0.081066 0.567625 0.082907
    16 0.866211 0.000000 -0.000001 -0.008129 -0.487940 -0.000955
    17 1.191406 1.062500 -1.191406 3.072296 0.219014 0.151813
    18 1.987305 -0.000002 0.000000 -0.025970 0.053561 -0.091013
    19 1.217773 0.000004 0.000002 -0.020700 -0.169366 0.027834
    20 9.578125 0.084412 -0.006870 1.606992 0.268796 1.517345
    21 -1.511719 11.007813 -4.187500 1.244308 0.425693 -2.037295
    22 0.000000 0.000000 0.000000 2.785285 -0.396270 -0.375403
    23 10.859375 0.000016 -0.000004 -0.279330 0.007173 -2.116317
    24 11.117188 0.015495 -0.057343 -0.701936 -0.729903 1.221545
    25 4.460938 -0.096558 -1.193359 -1.692327 0.052480 -0.517339
    26 1.534180 0.000004 0.000000 -0.001689 0.150425 -0.007557
    27 0.923828 0.000000 0.000000 -0.000168 0.591517 -0.001706
    28 3.871094 -0.338867 1.439453 -1.480019 0.189903 -1.416936
    29 1.197266 0.000004 -0.000017 -0.127146 1.001777 -0.146524
    30 0.866211 -0.000001 -0.000003 0.009351 0.733784 0.001142
    31 4.582031 0.205322 -0.326172 -1.539698 0.007204 -1.420212
    32 1.709961 0.000006 -0.000002 -0.026879 1.095842 -0.020771
    33 0.998047 -0.000001 0.000001 -0.016608 0.557664 0.006715
    34 4.332031 0.048065 0.604980 -1.502394 0.106974 -1.508525
    35 1.571289 0.000006 -0.000001 -0.060351 1.044535 -0.069431
    36 1.039063 -0.000008 0.000001 -0.009609 0.637010 -0.018240
    37 1.191406 -1.062500 -1.191406 2.688815 0.147029 -0.438545
    38 1.987305 0.000004 0.000002 0.027278 0.315271 0.098085
    39 1.217773 -0.000005 0.000003 0.021152 0.266873 -0.018769
    40 9.578125 -0.084412 -0.006874 -1.606853 -0.254477 -1.498648
    41 -0.871094 11.210938 -11.585938 0.000000 0.000000 -0.000001
    42 -2.337891 -5.980469 -3.394531 0.000000 0.000000 -0.000039
    43 -2.332031 -16.890625 -3.265625 0.000000 0.000000 -0.000039
    44 0.000000 0.000000 0.000000 0.000000 0.000000 0.000000
    45 0.000000 0.000000 0.000000 0.000000 0.000000 0.000000
    46 0.000000 0.000000 0.000000 0.000000 0.000000 0.000000
    47 0.000000 0.000000 0.000000 -1.570796 0.000000 0.000000
    48 0.000000 0.000000 0.000000 -1.570796 0.000000 0.000000
    49 0.000000 0.000000 0.000000 -1.570796 0.000000 0.000000
    50 0.000000 0.000000 0.000000 1.570796 0.000000 0.000000
    51 0.000000 0.000000 0.000000 1.570796 0.000000 0.000000
    52 0.000000 0.000000 0.000000 1.570796 0.000000 0.000000
    53 0.000000 0.000000 0.000000 1.570796 0.000000 0.000000
    54 0.000000 0.000000 0.000000 1.570796 0.000000 0.000000
    55 0.000000 0.000000 0.000000 1.570796 0.000000 0.000000
    56 0.000000 0.000000 0.000000 1.570796 0.000000 0.000000
    57 0.000000 0.000000 0.000000 1.570796 0.000000 0.000000
    58 0.000000 0.000000 0.000000 1.570796 0.000000 0.000000
    59 0.000000 0.000000 0.000000 1.570796 0.000000 0.000000
    60 0.000000 0.000000 0.000000 1.570796 0.000000 0.000000
    61 0.000000 0.000000 0.000000 1.570796 0.000000 0.000000
    62 0.000000 0.000001 0.000000 0.000000 0.000000 0.000000
    63 0.000000 0.000000 0.000000 0.000000 0.000000 0.000000
    64 0.000000 0.000000 0.000000 -3.141593 0.000000 0.000000
    65 0.000000 0.000000 0.000000 -1.570796 0.000000 0.000000
    66 0.000000 0.000000 0.000000 -1.570796 0.000000 0.000000
    67 0.000000 0.000000 0.000000 -1.570796 0.000000 0.000000
    68 0.000000 0.000000 0.000000 1.570796 0.000000 0.000000
    69 0.000000 0.000000 0.000000 1.570796 0.000000 0.000000
    70 0.000000 0.000000 0.000000 1.570796 0.000000 0.000000
    71 0.000000 0.000000 0.000001 1.570796 0.000000 0.000000
    72 0.000000 0.000000 0.000000 1.570796 0.000000 0.000000
    73 0.000000 0.000000 0.000000 1.570796 0.000000 0.000000
    74 0.000000 0.000000 0.000000 1.570796 0.000000 0.000000
    75 0.000000 0.000000 0.000000 1.570796 0.000000 0.000000
    76 -0.000001 0.000000 0.000000 1.570796 0.000000 0.000000
    77 0.000000 0.000000 0.000000 1.570796 0.000000 0.000000
    78 0.000000 0.000000 0.000000 1.570796 0.000000 0.000000
    79 0.000000 0.000000 0.000000 1.570796 0.000000 0.000000
  time 2
    0 -2.335938 -2.996094 -3.587891 0.000000 0.000000 -0.000039
    1 7.195313 4.312500 -6.410156 -0.275968 0.424923 -1.104175
    2 0.000000 0.000000 0.000000 2.499906 0.221061 -0.622615
    3 10.859375 -0.000001 -0.000001 0.263528 0.006782 0.975798
    4 11.117188 -0.015495 -0.057343 -0.439714 -0.076172 -0.480030
    5 4.460938 0.096558 -1.193359 1.700635 -0.250355 0.126839
    6 1.534180 -0.000001 -0.000001 0.009042 0.848532 0.011307
    7 0.923828 0.000000 0.000000 0.002695 1.027849 0.003260
    8 4.582031 -0.205322 -0.326172 1.346533 -0.259536 0.638898
    9 1.709961 -0.000007 0.000000 3.036021 1.434016 3.039811
    10 0.998047 0.000000 0.000000 0.026837 -0.314590 -0.022355
    11 4.332031 -0.048065 0.604980 1.141283 -0.111227 1.109616
    12 1.571289 0.000003 0.000003 0.269056 1.478394 0.281975
    13 1.039063 0.000006 0.000000 0.006016 -0.410155 0.011865
    14 3.871094 0.338867 1.439453 1.121923 0.266193 1.782702
    15 1.197266 -0.000006 -0.000016 0.081066 0.567625 0.082907
    16 0.866211 0.000000 -0.000001 -0.008129 -0.487940 -0.000955
    17 1.191406 1.062500 -1.191406 3.072296 0.219014 0.151813
    18 1.987305 -0.000002 0.000000 -0.025970 0.053561 -0.091013
    19 1.217773 0.000004 0.000002 -0.020700 -0.169366 0.027834
    20 9.578125 0.084412 -0.006870 1.606992 0.268796 1.517345
    21 -1.511719 11.007813 -4.187500 1.244308 0.425693 -2.037295
    22 0.000000 0.000000 0.000000 2.785285 -0.396270 -0.375403
    23 10.859375 0.000016 -0.000004 -0.279330 0.007173 -2.116317
    24 11.117188 0.015495 -0.057343 -0.701936 -0.729903 1.221545
    25 4.460938 -0.096558 -1.193359 -1.692327 0.052480 -0.517339
    26 1.534180 0.000004 0.000000 -0.001689 0.150425 -0.007557
    27 0.923828 0.000000 0.000000 -0.000168 0.591517 -0.001706
    28 3.871094 -0.338867 1.439453 -1.480019 0.189903 -1.416936
    29 1.197266 0.000004 -0.000017 -0.127146 1.001777 -0.146524
    30 0.866211 -0.000001 -0.000003 0.009351 0.733784 0.001142
    31 4.582031 0.205322 -0.326172 -1.539698 0.007204 -1.420212
    32 1.709961 0.000006 -0.000002 -0.026879 1.095842 -0.020771
    33 0.998047 -0.000001 0.000001 -0.016608 0.557664 0.006715
    34 4.332031 0.048065 0.604980 -1.502394 0.106974 -1.508525
    35 1.571289 0.000006 -0.000001 -0.060351 1.044535 -0.069431
    36 1.039063 -0.000008 0.000001 -0.009609 0.637010 -0.018240
    37 1.191406 -1.062500 -1.191406 2.688815 0.147029 -0.438545
    38 1.987305 0.000004 0.000002 0.027278 0.315271 0.098085
    39 1.217773 -0.000005 0.000003 0.021152 0.266873 -0.018769
    40 9.578125 -0.084412 -0.006874 -1.606853 -0.254477 -1.498648
    41 -0.871094 11.210938 -11.585938 0.000000 0.000000 -0.000001
    42 -2.337891 -5.980469 -3.394531 0.000000 0.000000 -0.000039
    43 -2.332031 -16.890625 -3.265625 0.000000 0.000000 -0.000039
    44 0.000000 0.000000 0.000000 0.000000 0.000000 0.000000
    45 0.000000 0.000000 0.000000 0.000000 0.000000 0.000000
    46 0.000000 0.000000 0.000000 0.000000 0.000000 0.000000
    47 0.000000 0.000000 0.000000 -1.570796 0.000000 0.000000
    48 0.000000 0.000000 0.000000 -1.570796 0.000000 0.000000
    49 0.000000 0.000000 0.000000 -1.570796 0.000000 0.000000
    50 0.000000 0.000000 0.000000 1.570796 0.000000 0.000000
    51 0.000000 0.000000 0.000000 1.570796 0.000000 0.000000
    52 0.000000 0.000000 0.000000 1.570796 0.000000 0.000000
    53 0.000000 0.000000 0.000000 1.570796 0.000000 0.000000
    54 0.000000 0.000000 0.000000 1.570796 0.000000 0.000000
    55 0.000000 0.000000 0.000000 1.570796 0.000000 0.000000
    56 0.000000 0.000000 0.000000 1.570796 0.000000 0.000000
    57 0.000000 0.000000 0.000000 1.570796 0.000000 0.000000
    58 0.000000 0.000000 0.000000 1.570796 0.000000 0.000000
    59 0.000000 0.000000 0.000000 1.570796 0.000000 0.000000
    60 0.000000 0.000000 0.000000 1.570796 0.000000 0.000000
    61 0.000000 0.000000 0.000000 1.570796 0.000000 0.000000
    62 0.000000 0.000001 0.000000 0.000000 0.000000 0.000000
    63 0.000000 0.000000 0.000000 0.000000 0.000000 0.000000
    64 0.000000 0.000000 0.000000 -3.141593 0.000000 0.000000
    65 0.000000 0.000000 0.000000 -1.570796 0.000000 0.000000
    66 0.000000 0.000000 0.000000 -1.570796 0.000000 0.000000
    67 0.000000 0.000000 0.000000 -1.570796 0.000000 0.000000
    68 0.000000 0.000000 0.000000 1.570796 0.000000 0.000000
    69 0.000000 0.000000 0.000000 1.570796 0.000000 0.000000
    70 0.000000 0.000000 0.000000 1.570796 0.000000 0.000000
    71 0.000000 0.000000 0.000001 1.570796 0.000000 0.000000
    72 0.000000 0.000000 0.000000 1.570796 0.000000 0.000000
    73 0.000000 0.000000 0.000000 1.570796 0.000000 0.000000
    74 0.000000 0.000000 0.000000 1.570796 0.000000 0.000000
    75 0.000000 0.000000 0.000000 1.570796 0.000000 0.000000
    76 -0.000001 0.000000 0.000000 1.570796 0.000000 0.000000
    77 0.000000 0.000000 0.000000 1.570796 0.000000 0.000000
    78 0.000000 0.000000 0.000000 1.570796 0.000000 0.000000
    79 0.000000 0.000000 0.000000 1.570796 0.000000 0.000000
  time 3
    0 -2.335938 -2.996094 -3.587891 0.000000 0.000000 -0.000039
    1 7.195313 4.312500 -6.410156 -0.275968 0.424923 -1.104175
    2 0.000000 0.000000 0.000000 2.499906 0.221061 -0.622615
    3 10.859375 -0.000001 -0.000001 0.263528 0.006782 0.975798
    4 11.117188 -0.015495 -0.057343 -0.439714 -0.076172 -0.480030
    5 4.460938 0.096558 -1.193359 1.700635 -0.250355 0.126839
    6 1.534180 -0.000001 -0.000001 0.009042 0.848532 0.011307
    7 0.923828 0.000000 0.000000 0.002695 1.027849 0.003260
    8 4.582031 -0.205322 -0.326172 1.346533 -0.259536 0.638898
    9 1.709961 -0.000007 0.000000 3.036021 1.434016 3.039811
    10 0.998047 0.000000 0.000000 0.026837 -0.314590 -0.022355
    11 4.332031 -0.048065 0.604980 1.141283 -0.111227 1.109616
    12 1.571289 0.000003 0.000003 0.269056 1.478394 0.281975
    13 1.039063 0.000006 0.000000 0.006016 -0.410155 0.011865
    14 3.871094 0.338867 1.439453 1.121923 0.266193 1.782702
    15 1.197266 -0.000006 -0.000016 0.081066 0.567625 0.082907
    16 0.866211 0.000000 -0.000001 -0.008129 -0.487940 -0.000955
    17 1.191406 1.062500 -1.191406 3.072296 0.219014 0.151813
    18 1.987305 -0.000002 0.000000 -0.025970 0.053561 -0.091013
    19 1.217773 0.000004 0.000002 -0.020700 -0.169366 0.027834
    20 9.578125 0.084412 -0.006870 1.606992 0.268796 1.517345
    21 -1.511719 11.007813 -4.187500 1.244308 0.425693 -2.037295
    22 0.000000 0.000000 0.000000 2.785285 -0.396270 -0.375403
    23 10.859375 0.000016 -0.000004 -0.279330 0.007173 -2.116317
    24 11.117188 0.015495 -0.057343 -0.701936 -0.729903 1.221545
    25 4.460938 -0.096558 -1.193359 -1.692327 0.052480 -0.517339
    26 1.534180 0.000004 0.000000 -0.001689 0.150425 -0.007557
    27 0.923828 0.000000 0.000000 -0.000168 0.591517 -0.001706
    28 3.871094 -0.338867 1.439453 -1.480019 0.189903 -1.416936
    29 1.197266 0.000004 -0.000017 -0.127146 1.001777 -0.146524
    30 0.866211 -0.000001 -0.000003 0.009351 0.733784 0.001142
    31 4.582031 0.205322 -0.326172 -1.539698 0.007204 -1.420212
    32 1.709961 0.000006 -0.000002 -0.026879 1.095842 -0.020771
    33 0.998047 -0.000001 0.000001 -0.016608 0.557664 0.006715
    34 4.332031 0.048065 0.604980 -1.502394 0.106974 -1.508525
    35 1.571289 0.000006 -0.000001 -0.060351 1.044535 -0.069431
    36 1.039063 -0.000008 0.000001 -0.009609 0.637010 -0.018240
    37 1.191406 -1.062500 -1.191406 2.688815 0.147029 -0.438545
    38 1.987305 0.000004 0.000002 0.027278 0.315271 0.098085
    39 1.217773 -0.000005 0.000003 0.021152 0.266873 -0.018769
    40 9.578125 -0.084412 -0.006874 -1.606853 -0.254477 -1.498648
    41 -0.871094 11.210938 -11.585938 0.000000 0.000000 -0.000001
    42 -2.337891 -5.980469 -3.394531 0.000000 0.000000 -0.000039
    43 -2.332031 -16.890625 -3.265625 0.000000 0.000000 -0.000039
    44 0.000000 0.000000 0.000000 0.000000 0.000000 0.000000
    45 0.000000 0.000000 0.000000 0.000000 0.000000 0.000000
    46 0.000000 0.000000 0.000000 0.000000 0.000000 0.000000
    47 0.000000 0.000000 0.000000 -1.570796 0.000000 0.000000
    48 0.000000 0.000000 0.000000 -1.570796 0.000000 0.000000
    49 0.000000 0.000000 0.000000 -1.570796 0.000000 0.000000
    50 0.000000 0.000000 0.000000 1.570796 0.000000 0.000000
    51 0.000000 0.000000 0.000000 1.570796 0.000000 0.000000
    52 0.000000 0.000000 0.000000 1.570796 0.000000 0.000000
    53 0.000000 0.000000 0.000000 1.570796 0.000000 0.000000
    54 0.000000 0.000000 0.000000 1.570796 0.000000 0.000000
    55 0.000000 0.000000 0.000000 1.570796 0.000000 0.000000
    56 0.000000 0.000000 0.000000 1.570796 0.000000 0.000000
    57 0.000000 0.000000 0.000000 1.570796 0.000000 0.000000
    58 0.000000 0.000000 0.000000 1.570796 0.000000 0.000000
    59 0.000000 0.000000 0.000000 1.570796 0.000000 0.000000
    60 0.000000 0.000000 0.000000 1.570796 0.000000 0.000000
    61 0.000000 0.000000 0.000000 1.570796 0.000000 0.000000
    62 0.000000 0.000001 0.000000 0.000000 0.000000 0.000000
    63 0.000000 0.000000 0.000000 0.000000 0.000000 0.000000
    64 0.000000 0.000000 0.000000 -3.141593 0.000000 0.000000
    65 0.000000 0.000000 0.000000 -1.570796 0.000000 0.000000
    66 0.000000 0.000000 0.000000 -1.570796 0.000000 0.000000
    67 0.000000 0.000000 0.000000 -1.570796 0.000000 0.000000
    68 0.000000 0.000000 0.000000 1.570796 0.000000 0.000000
    69 0.000000 0.000000 0.000000 1.570796 0.000000 0.000000
    70 0.000000 0.000000 0.000000 1.570796 0.000000 0.000000
    71 0.000000 0.000000 0.000001 1.570796 0.000000 0.000000
    72 0.000000 0.000000 0.000000 1.570796 0.000000 0.000000
    73 0.000000 0.000000 0.000000 1.570796 0.000000 0.000000
    74 0.000000 0.000000 0.000000 1.570796 0.000000 0.000000
    75 0.000000 0.000000 0.000000 1.570796 0.000000 0.000000
    76 -0.000001 0.000000 0.000000 1.570796 0.000000 0.000000
    77 0.000000 0.000000 0.000000 1.570796 0.000000 0.000000
    78 0.000000 0.000000 0.000000 1.570796 0.000000 0.000000
    79 0.000000 0.000000 0.000000 1.570796 0.000000 0.000000
  time 4
    0 -2.335938 -2.996094 -3.587891 0.000000 0.000000 -0.000039
    1 7.195313 4.312500 -6.410156 -0.275968 0.424923 -1.104175
    2 0.000000 0.000000 0.000000 2.499906 0.221061 -0.622615
    3 10.859375 -0.000001 -0.000001 0.263528 0.006782 0.975798
    4 11.117188 -0.015495 -0.057343 -0.439714 -0.076172 -0.480030
    5 4.460938 0.096558 -1.193359 1.700635 -0.250355 0.126839
    6 1.534180 -0.000001 -0.000001 0.009042 0.848532 0.011307
    7 0.923828 0.000000 0.000000 0.002695 1.027849 0.003260
    8 4.582031 -0.205322 -0.326172 1.346533 -0.259536 0.638898
    9 1.709961 -0.000007 0.000000 3.036021 1.434016 3.039811
    10 0.998047 0.000000 0.000000 0.026837 -0.314590 -0.022355
    11 4.332031 -0.048065 0.604980 1.141283 -0.111227 1.109616
    12 1.571289 0.000003 0.000003 0.269056 1.478394 0.281975
    13 1.039063 0.000006 0.000000 0.006016 -0.410155 0.011865
    14 3.871094 0.338867 1.439453 1.121923 0.266193 1.782702
    15 1.197266 -0.000006 -0.000016 0.081066 0.567625 0.082907
    16 0.866211 0.000000 -0.000001 -0.008129 -0.487940 -0.000955
    17 1.191406 1.062500 -1.191406 3.072296 0.219014 0.151813
    18 1.987305 -0.000002 0.000000 -0.025970 0.053561 -0.091013
    19 1.217773 0.000004 0.000002 -0.020700 -0.169366 0.027834
    20 9.578125 0.084412 -0.006870 1.606992 0.268796 1.517345
    21 -1.511719 11.007813 -4.187500 1.244308 0.425693 -2.037295
    22 0.000000 0.000000 0.000000 2.785285 -0.396270 -0.375403
    23 10.859375 0.000016 -0.000004 -0.279330 0.007173 -2.116317
    24 11.117188 0.015495 -0.057343 -0.701936 -0.729903 1.221545
    25 4.460938 -0.096558 -1.193359 -1.692327 0.052480 -0.517339
    26 1.534180 0.000004 0.000000 -0.001689 0.150425 -0.007557
    27 0.923828 0.000000 0.000000 -0.000168 0.591517 -0.001706
    28 3.871094 -0.338867 1.439453 -1.480019 0.189903 -1.416936
    29 1.197266 0.000004 -0.000017 -0.127146 1.001777 -0.146524
    30 0.866211 -0.000001 -0.000003 0.009351 0.733784 0.001142
    31 4.582031 0.205322 -0.326172 -1.539698 0.007204 -1.420212
    32 1.709961 0.000006 -0.000002 -0.026879 1.095842 -0.020771
    33 0.998047 -0.000001 0.000001 -0.016608 0.557664 0.006715
    34 4.332031 0.048065 0.604980 -1.502394 0.106974 -1.508525
    35 1.571289 0.000006 -0.000001 -0.060351 1.044535 -0.069431
    36 1.039063 -0.000008 0.000001 -0.009609 0.637010 -0.018240
    37 1.191406 -1.062500 -1.191406 2.688815 0.147029 -0.438545
    38 1.987305 0.000004 0.000002 0.027278 0.315271 0.098085
    39 1.217773 -0.000005 0.000003 0.021152 0.266873 -0.018769
    40 9.578125 -0.084412 -0.006874 -1.606853 -0.254477 -1.498648
    41 -0.871094 11.210938 -11.585938 0.000000 0.000000 -0.000001
    42 -2.337891 -5.980469 -3.394531 0.000000 0.000000 -0.000039
    43 -2.332031 -16.890625 -3.265625 0.000000 0.000000 -0.000039
    44 0.000000 0.000000 0.000000 0.000000 0.000000 0.000000
    45 0.000000 0.000000 0.000000 0.000000 0.000000 0.000000
    46 0.000000 0.000000 0.000000 0.000000 0.000000 0.000000
    47 0.000000 0.000000 0.000000 -1.570796 0.000000 0.000000
    48 0.000000 0.000000 0.000000 -1.570796 0.000000 0.000000
    49 0.000000 0.000000 0.000000 -1.570796 0.000000 0.000000
    50 0.000000 0.000000 0.000000 1.570796 0.000000 0.000000
    51 0.000000 0.000000 0.000000 1.570796 0.000000 0.000000
    52 0.000000 0.000000 0.000000 1.570796 0.000000 0.000000
    53 0.000000 0.000000 0.000000 1.570796 0.000000 0.000000
    54 0.000000 0.000000 0.000000 1.570796 0.000000 0.000000
    55 0.000000 0.000000 0.000000 1.570796 0.000000 0.000000
    56 0.000000 0.000000 0.000000 1.570796 0.000000 0.000000
    57 0.000000 0.000000 0.000000 1.570796 0.000000 0.000000
    58 0.000000 0.000000 0.000000 1.570796 0.000000 0.000000
    59 0.000000 0.000000 0.000000 1.570796 0.000000 0.000000
    60 0.000000 0.000000 0.000000 1.570796 0.000000 0.000000
    61 0.000000 0.000000 0.000000 1.570796 0.000000 0.000000
    62 0.000000 0.000001 0.000000 0.000000 0.000000 0.000000
    63 0.000000 0.000000 0.000000 0.000000 0.000000 0.000000
    64 0.000000 0.000000 0.000000 -3.141593 0.000000 0.000000
    65 0.000000 0.000000 0.000000 -1.570796 0.000000 0.000000
    66 0.000000 0.000000 0.000000 -1.570796 0.000000 0.000000
    67 0.000000 0.000000 0.000000 -1.570796 0.000000 0.000000
    68 0.000000 0.000000 0.000000 1.570796 0.000000 0.000000
    69 0.000000 0.000000 0.000000 1.570796 0.000000 0.000000
    70 0.000000 0.000000 0.000000 1.570796 0.000000 0.000000
    71 0.000000 0.000000 0.000001 1.570796 0.000000 0.000000
    72 0.000000 0.000000 0.000000 1.570796 0.000000 0.000000
    73 0.000000 0.000000 0.000000 1.570796 0.000000 0.000000
    74 0.000000 0.000000 0.000000 1.570796 0.000000 0.000000
    75 0.000000 0.000000 0.000000 1.570796 0.000000 0.000000
    76 -0.000001 0.000000 0.000000 1.570796 0.000000 0.000000
    77 0.000000 0.000000 0.000000 1.570796 0.000000 0.000000
    78 0.000000 0.000000 0.000000 1.570796 0.000000 0.000000
    79 0.000000 0.000000 0.000000 1.570796 0.000000 0.000000
  time 5
    0 -2.335938 -2.996094 -3.587891 0.000000 0.000000 -0.000039
    1 7.195313 4.312500 -6.410156 -0.275968 0.424923 -1.104175
    2 0.000000 0.000000 0.000000 2.499906 0.221061 -0.622615
    3 10.859375 -0.000001 -0.000001 0.263528 0.006782 0.975798
    4 11.117188 -0.015495 -0.057343 -0.439714 -0.076172 -0.480030
    5 4.460938 0.096558 -1.193359 1.700635 -0.250355 0.126839
    6 1.534180 -0.000001 -0.000001 0.009042 0.848532 0.011307
    7 0.923828 0.000000 0.000000 0.002695 1.027849 0.003260
    8 4.582031 -0.205322 -0.326172 1.346533 -0.259536 0.638898
    9 1.709961 -0.000007 0.000000 3.036021 1.434016 3.039811
    10 0.998047 0.000000 0.000000 0.026837 -0.314590 -0.022355
    11 4.332031 -0.048065 0.604980 1.141283 -0.111227 1.109616
    12 1.571289 0.000003 0.000003 0.269056 1.478394 0.281975
    13 1.039063 0.000006 0.000000 0.006016 -0.410155 0.011865
    14 3.871094 0.338867 1.439453 1.121923 0.266193 1.782702
    15 1.197266 -0.000006 -0.000016 0.081066 0.567625 0.082907
    16 0.866211 0.000000 -0.000001 -0.008129 -0.487940 -0.000955
    17 1.191406 1.062500 -1.191406 3.072296 0.219014 0.151813
    18 1.987305 -0.000002 0.000000 -0.025970 0.053561 -0.091013
    19 1.217773 0.000004 0.000002 -0.020700 -0.169366 0.027834
    20 9.578125 0.084412 -0.006870 1.606992 0.268796 1.517345
    21 -1.511719 11.007813 -4.187500 1.244308 0.425693 -2.037295
    22 0.000000 0.000000 0.000000 2.785285 -0.396270 -0.375403
    23 10.859375 0.000016 -0.000004 -0.279330 0.007173 -2.116317
    24 11.117188 0.015495 -0.057343 -0.701936 -0.729903 1.221545
    25 4.460938 -0.096558 -1.193359 -1.692327 0.052480 -0.517339
    26 1.534180 0.000004 0.000000 -0.001689 0.150425 -0.007557
    27 0.923828 0.000000 0.000000 -0.000168 0.591517 -0.001706
    28 3.871094 -0.338867 1.439453 -1.480019 0.189903 -1.416936
    29 1.197266 0.000004 -0.000017 -0.127146 1.001777 -0.146524
    30 0.866211 -0.000001 -0.000003 0.009351 0.733784 0.001142
    31 4.582031 0.205322 -0.326172 -1.539698 0.007204 -1.420212
    32 1.709961 0.000006 -0.000002 -0.026879 1.095842 -0.020771
    33 0.998047 -0.000001 0.000001 -0.016608 0.557664 0.006715
    34 4.332031 0.048065 0.604980 -1.502394 0.106974 -1.508525
    35 1.571289 0.000006 -0.000001 -0.060351 1.044535 -0.069431
    36 1.039063 -0.000008 0.000001 -0.009609 0.637010 -0.018240
    37 1.191406 -1.062500 -1.191406 2.688815 0.147029 -0.438545
    38 1.987305 0.000004 0.000002 0.027278 0.315271 0.098085
    39 1.217773 -0.000005 0.000003 0.021152 0.266873 -0.018769
    40 9.578125 -0.084412 -0.006874 -1.606853 -0.254477 -1.498648
    41 -0.871094 11.210938 -11.585938 0.000000 0.000000 -0.000001
    42 -2.337891 -5.980469 -3.394531 0.000000 0.000000 -0.000039
    43 -2.332031 -16.890625 -3.265625 0.000000 0.000000 -0.000039
    44 0.000000 0.000000 0.000000 0.000000 0.000000 0.000000
    45 0.000000 0.000000 0.000000 0.000000 0.000000 0.000000
    46 0.000000 0.000000 0.000000 0.000000 0.000000 0.000000
    47 0.000000 0.000000 0.000000 -1.570796 0.000000 0.000000
    48 0.000000 0.000000 0.000000 -1.570796 0.000000 0.000000
    49 0.000000 0.000000 0.000000 -1.570796 0.000000 0.000000
    50 0.000000 0.000000 0.000000 1.570796 0.000000 0.000000
    51 0.000000 0.000000 0.000000 1.570796 0.000000 0.000000
    52 0.000000 0.000000 0.000000 1.570796 0.000000 0.000000
    53 0.000000 0.000000 0.000000 1.570796 0.000000 0.000000
    54 0.000000 0.000000 0.000000 1.570796 0.000000 0.000000
    55 0.000000 0.000000 0.000000 1.570796 0.000000 0.000000
    56 0.000000 0.000000 0.000000 1.570796 0.000000 0.000000
    57 0.000000 0.000000 0.000000 1.570796 0.000000 0.000000
    58 0.000000 0.000000 0.000000 1.570796 0.000000 0.000000
    59 0.000000 0.000000 0.000000 1.570796 0.000000 0.000000
    60 0.000000 0.000000 0.000000 1.570796 0.000000 0.000000
    61 0.000000 0.000000 0.000000 1.570796 0.000000 0.000000
    62 0.000000 0.000001 0.000000 0.000000 0.000000 0.000000
    63 0.000000 0.000000 0.000000 0.000000 0.000000 0.000000
    64 0.000000 0.000000 0.000000 -3.141593 0.000000 0.000000
    65 0.000000 0.000000 0.000000 -1.570796 0.000000 0.000000
    66 0.000000 0.000000 0.000000 -1.570796 0.000000 0.000000
    67 0.000000 0.000000 0.000000 -1.570796 0.000000 0.000000
    68 0.000000 0.000000 0.000000 1.570796 0.000000 0.000000
    69 0.000000 0.000000 0.000000 1.570796 0.000000 0.000000
    70 0.000000 0.000000 0.000000 1.570796 0.000000 0.000000
    71 0.000000 0.000000 0.000001 1.570796 0.000000 0.000000
    72 0.000000 0.000000 0.000000 1.570796 0.000000 0.000000
    73 0.000000 0.000000 0.000000 1.570796 0.000000 0.000000
    74 0.000000 0.000000 0.000000 1.570796 0.000000 0.000000
    75 0.000000 0.000000 0.000000 1.570796 0.000000 0.000000
    76 -0.000001 0.000000 0.000000 1.570796 0.000000 0.000000
    77 0.000000 0.000000 0.000000 1.570796 0.000000 0.000000
    78 0.000000 0.000000 0.000000 1.570796 0.000000 0.000000
    79 0.000000 0.000000 0.000000 1.570796 0.000000 0.000000
  time 6
    0 -2.335938 -2.996094 -3.587891 0.000000 0.000000 -0.000039
    1 7.195313 4.312500 -6.410156 -0.275968 0.424923 -1.104175
    2 0.000000 0.000000 0.000000 2.499906 0.221061 -0.622615
    3 10.859375 -0.000001 -0.000001 0.263528 0.006782 0.975798
    4 11.117188 -0.015495 -0.057343 -0.439714 -0.076172 -0.480030
    5 4.460938 0.096558 -1.193359 1.700635 -0.250355 0.126839
    6 1.534180 -0.000001 -0.000001 0.009042 0.848532 0.011307
    7 0.923828 0.000000 0.000000 0.002695 1.027849 0.003260
    8 4.582031 -0.205322 -0.326172 1.346533 -0.259536 0.638898
    9 1.709961 -0.000007 0.000000 3.036021 1.434016 3.039811
    10 0.998047 0.000000 0.000000 0.026837 -0.314590 -0.022355
    11 4.332031 -0.048065 0.604980 1.141283 -0.111227 1.109616
    12 1.571289 0.000003 0.000003 0.269056 1.478394 0.281975
    13 1.039063 0.000006 0.000000 0.006016 -0.410155 0.011865
    14 3.871094 0.338867 1.439453 1.121923 0.266193 1.782702
    15 1.197266 -0.000006 -0.000016 0.081066 0.567625 0.082907
    16 0.866211 0.000000 -0.000001 -0.008129 -0.487940 -0.000955
    17 1.191406 1.062500 -1.191406 3.072296 0.219014 0.151813
    18 1.987305 -0.000002 0.000000 -0.025970 0.053561 -0.091013
    19 1.217773 0.000004 0.000002 -0.020700 -0.169366 0.027834
    20 9.578125 0.084412 -0.006870 1.606992 0.268796 1.517345
    21 -1.511719 11.007813 -4.187500 1.244308 0.425693 -2.037295
    22 0.000000 0.000000 0.000000 2.785285 -0.396270 -0.375403
    23 10.859375 0.000016 -0.000004 -0.279330 0.007173 -2.116317
    24 11.117188 0.015495 -0.057343 -0.701936 -0.729903 1.221545
    25 4.460938 -0.096558 -1.193359 -1.692327 0.052480 -0.517339
    26 1.534180 0.000004 0.000000 -0.001689 0.150425 -0.007557
    27 0.923828 0.000000 0.000000 -0.000168 0.591517 -0.001706
    28 3.871094 -0.338867 1.439453 -1.480019 0.189903 -1.416936
    29 1.197266 0.000004 -0.000017 -0.127146 1.001777 -0.146524
    30 0.866211 -0.000001 -0.000003 0.009351 0.733784 0.001142
    31 4.582031 0.205322 -0.326172 -1.539698 0.007204 -1.420212
    32 1.709961 0.000006 -0.000002 -0.026879 1.095842 -0.020771
    33 0.998047 -0.000001 0.000001 -0.016608 0.557664 0.006715
    34 4.332031 0.048065 0.604980 -1.502394 0.106974 -1.508525
    35 1.571289 0.000006 -0.000001 -0.060351 1.044535 -0.069431
    36 1.039063 -0.000008 0.000001 -0.009609 0.637010 -0.018240
    37 1.191406 -1.062500 -1.191406 2.688815 0.147029 -0.438545
    38 1.987305 0.000004 0.000002 0.027278 0.315271 0.098085
    39 1.217773 -0.000005 0.000003 0.021152 0.266873 -0.018769
    40 9.578125 -0.084412 -0.006874 -1.606853 -0.254477 -1.498648
    41 -0.871094 11.210938 -11.585938 0.000000 0.000000 -0.000001
    42 -2.337891 -5.980469 -3.394531 0.000000 0.000000 -0.000039
    43 -2.332031 -16.890625 -3.265625 0.000000 0.000000 -0.000039
    44 0.000000 0.000000 0.000000 0.000000 0.000000 0.000000
    45 0.000000 0.000000 0.000000 0.000000 0.000000 0.000000
    46 0.000000 0.000000 0.000000 0.000000 0.000000 0.000000
    47 0.000000 0.000000 0.000000 -1.570796 0.000000 0.000000
    48 0.000000 0.000000 0.000000 -1.570796 0.000000 0.000000
    49 0.000000 0.000000 0.000000 -1.570796 0.000000 0.000000
    50 0.000000 0.000000 0.000000 1.570796 0.000000 0.000000
    51 0.000000 0.000000 0.000000 1.570796 0.000000 0.000000
    52 0.000000 0.000000 0.000000 1.570796 0.000000 0.000000
    53 0.000000 0.000000 0.000000 1.570796 0.000000 0.000000
    54 0.000000 0.000000 0.000000 1.570796 0.000000 0.000000
    55 0.000000 0.000000 0.000000 1.570796 0.000000 0.000000
    56 0.000000 0.000000 0.000000 1.570796 0.000000 0.000000
    57 0.000000 0.000000 0.000000 1.570796 0.000000 0.000000
    58 0.000000 0.000000 0.000000 1.570796 0.000000 0.000000
    59 0.000000 0.000000 0.000000 1.570796 0.000000 0.000000
    60 0.000000 0.000000 0.000000 1.570796 0.000000 0.000000
    61 0.000000 0.000000 0.000000 1.570796 0.000000 0.000000
    62 0.000000 0.000001 0.000000 0.000000 0.000000 0.000000
    63 0.000000 0.000000 0.000000 0.000000 0.000000 0.000000
    64 0.000000 0.000000 0.000000 -3.141593 0.000000 0.000000
    65 0.000000 0.000000 0.000000 -1.570796 0.000000 0.000000
    66 0.000000 0.000000 0.000000 -1.570796 0.000000 0.000000
    67 0.000000 0.000000 0.000000 -1.570796 0.000000 0.000000
    68 0.000000 0.000000 0.000000 1.570796 0.000000 0.000000
    69 0.000000 0.000000 0.000000 1.570796 0.000000 0.000000
    70 0.000000 0.000000 0.000000 1.570796 0.000000 0.000000
    71 0.000000 0.000000 0.000001 1.570796 0.000000 0.000000
    72 0.000000 0.000000 0.000000 1.570796 0.000000 0.000000
    73 0.000000 0.000000 0.000000 1.570796 0.000000 0.000000
    74 0.000000 0.000000 0.000000 1.570796 0.000000 0.000000
    75 0.000000 0.000000 0.000000 1.570796 0.000000 0.000000
    76 -0.000001 0.000000 0.000000 1.570796 0.000000 0.000000
    77 0.000000 0.000000 0.000000 1.570796 0.000000 0.000000
    78 0.000000 0.000000 0.000000 1.570796 0.000000 0.000000
    79 0.000000 0.000000 0.000000 1.570796 0.000000 0.000000
  time 7
    0 -2.335938 -2.996094 -3.587891 0.000000 0.000000 -0.000039
    1 7.195313 4.312500 -6.410156 -0.275968 0.424923 -1.104175
    2 0.000000 0.000000 0.000000 2.499906 0.221061 -0.622615
    3 10.859375 -0.000001 -0.000001 0.263528 0.006782 0.975798
    4 11.117188 -0.015495 -0.057343 -0.439714 -0.076172 -0.480030
    5 4.460938 0.096558 -1.193359 1.700635 -0.250355 0.126839
    6 1.534180 -0.000001 -0.000001 0.009042 0.848532 0.011307
    7 0.923828 0.000000 0.000000 0.002695 1.027849 0.003260
    8 4.582031 -0.205322 -0.326172 1.346533 -0.259536 0.638898
    9 1.709961 -0.000007 0.000000 3.036021 1.434016 3.039811
    10 0.998047 0.000000 0.000000 0.026837 -0.314590 -0.022355
    11 4.332031 -0.048065 0.604980 1.141283 -0.111227 1.109616
    12 1.571289 0.000003 0.000003 0.269056 1.478394 0.281975
    13 1.039063 0.000006 0.000000 0.006016 -0.410155 0.011865
    14 3.871094 0.338867 1.439453 1.121923 0.266193 1.782702
    15 1.197266 -0.000006 -0.000016 0.081066 0.567625 0.082907
    16 0.866211 0.000000 -0.000001 -0.008129 -0.487940 -0.000955
    17 1.191406 1.062500 -1.191406 3.072296 0.219014 0.151813
    18 1.987305 -0.000002 0.000000 -0.025970 0.053561 -0.091013
    19 1.217773 0.000004 0.000002 -0.020700 -0.169366 0.027834
    20 9.578125 0.084412 -0.006870 1.606992 0.268796 1.517345
    21 -1.511719 11.007813 -4.187500 1.244308 0.425693 -2.037295
    22 0.000000 0.000000 0.000000 2.785285 -0.396270 -0.375403
    23 10.859375 0.000016 -0.000004 -0.279330 0.007173 -2.116317
    24 11.117188 0.015495 -0.057343 -0.701936 -0.729903 1.221545
    25 4.460938 -0.096558 -1.193359 -1.692327 0.052480 -0.517339
    26 1.534180 0.000004 0.000000 -0.001689 0.150425 -0.007557
    27 0.923828 0.000000 0.000000 -0.000168 0.591517 -0.001706
    28 3.871094 -0.338867 1.439453 -1.480019 0.189903 -1.416936
    29 1.197266 0.000004 -0.000017 -0.127146 1.001777 -0.146524
    30 0.866211 -0.000001 -0.000003 0.009351 0.733784 0.001142
    31 4.582031 0.205322 -0.326172 -1.539698 0.007204 -1.420212
    32 1.709961 0.000006 -0.000002 -0.026879 1.095842 -0.020771
    33 0.998047 -0.000001 0.000001 -0.016608 0.557664 0.006715
    34 4.332031 0.048065 0.604980 -1.502394 0.106974 -1.508525
    35 1.571289 0.000006 -0.000001 -0.060351 1.044535 -0.069431
    36 1.039063 -0.000008 0.000001 -0.009609 0.637010 -0.018240
    37 1.191406 -1.062500 -1.191406 2.688815 0.147029 -0.438545
    38 1.987305 0.000004 0.000002 0.027278 0.315271 0.098085
    39 1.217773 -0.000005 0.000003 0.021152 0.266873 -0.018769
    40 9.578125 -0.084412 -0.006874 -1.606853 -0.254477 -1.498648
    41 -0.871094 11.210938 -11.585938 0.000000 0.000000 -0.000001
    42 -2.337891 -5.980469 -3.394531 0.000000 0.000000 -0.000039
    43 -2.332031 -16.890625 -3.265625 0.000000 0.000000 -0.000039
    44 0.000000 0.000000 0.000000 0.000000 0.000000 0.000000
    45 0.000000 0.000000 0.000000 0.000000 0.000000 0.000000
    46 0.000000 0.000000 0.000000 0.000000 0.000000 0.000000
    47 0.000000 0.000000 0.000000 -1.570796 0.000000 0.000000
    48 0.000000 0.000000 0.000000 -1.570796 0.000000 0.000000
    49 0.000000 0.000000 0.000000 -1.570796 0.000000 0.000000
    50 0.000000 0.000000 0.000000 1.570796 0.000000 0.000000
    51 0.000000 0.000000 0.000000 1.570796 0.000000 0.000000
    52 0.000000 0.000000 0.000000 1.570796 0.000000 0.000000
    53 0.000000 0.000000 0.000000 1.570796 0.000000 0.000000
    54 0.000000 0.000000 0.000000 1.570796 0.000000 0.000000
    55 0.000000 0.000000 0.000000 1.570796 0.000000 0.000000
    56 0.000000 0.000000 0.000000 1.570796 0.000000 0.000000
    57 0.000000 0.000000 0.000000 1.570796 0.000000 0.000000
    58 0.000000 0.000000 0.000000 1.570796 0.000000 0.000000
    59 0.000000 0.000000 0.000000 1.570796 0.000000 0.000000
    60 0.000000 0.000000 0.000000 1.570796 0.000000 0.000000
    61 0.000000 0.000000 0.000000 1.570796 0.000000 0.000000
    62 0.000000 0.000001 0.000000 0.000000 0.000000 0.000000
    63 0.000000 0.000000 0.000000 0.000000 0.000000 0.000000
    64 0.000000 0.000000 0.000000 -3.141593 0.000000 0.000000
    65 0.000000 0.000000 0.000000 -1.570796 0.000000 0.000000
    66 0.000000 0.000000 0.000000 -1.570796 0.000000 0.000000
    67 0.000000 0.000000 0.000000 -1.570796 0.000000 0.000000
    68 0.000000 0.000000 0.000000 1.570796 0.000000 0.000000
    69 0.000000 0.000000 0.000000 1.570796 0.000000 0.000000
    70 0.000000 0.000000 0.000000 1.570796 0.000000 0.000000
    71 0.000000 0.000000 0.000001 1.570796 0.000000 0.000000
    72 0.000000 0.000000 0.000000 1.570796 0.000000 0.000000
    73 0.000000 0.000000 0.000000 1.570796 0.000000 0.000000
    74 0.000000 0.000000 0.000000 1.570796 0.000000 0.000000
    75 0.000000 0.000000 0.000000 1.570796 0.000000 0.000000
    76 -0.000001 0.000000 0.000000 1.570796 0.000000 0.000000
    77 0.000000 0.000000 0.000000 1.570796 0.000000 0.000000
    78 0.000000 0.000000 0.000000 1.570796 0.000000 0.000000
    79 0.000000 0.000000 0.000000 1.570796 0.000000 0.000000
  time 8
    0 -2.335938 -2.996094 -3.587891 0.000000 0.000000 -0.000039
    1 7.195313 4.312500 -6.410156 -0.275968 0.424923 -1.104175
    2 0.000000 0.000000 0.000000 2.499906 0.221061 -0.622615
    3 10.859375 -0.000001 -0.000001 0.263528 0.006782 0.975798
    4 11.117188 -0.015495 -0.057343 -0.439714 -0.076172 -0.480030
    5 4.460938 0.096558 -1.193359 1.700635 -0.250355 0.126839
    6 1.534180 -0.000001 -0.000001 0.009042 0.848532 0.011307
    7 0.923828 0.000000 0.000000 0.002695 1.027849 0.003260
    8 4.582031 -0.205322 -0.326172 1.346533 -0.259536 0.638898
    9 1.709961 -0.000007 0.000000 3.036021 1.434016 3.039811
    10 0.998047 0.000000 0.000000 0.026837 -0.314590 -0.022355
    11 4.332031 -0.048065 0.604980 1.141283 -0.111227 1.109616
    12 1.571289 0.000003 0.000003 0.269056 1.478394 0.281975
    13 1.039063 0.000006 0.000000 0.006016 -0.410155 0.011865
    14 3.871094 0.338867 1.439453 1.121923 0.266193 1.782702
    15 1.197266 -0.000006 -0.000016 0.081066 0.567625 0.082907
    16 0.866211 0.000000 -0.000001 -0.008129 -0.487940 -0.000955
    17 1.191406 1.062500 -1.191406 3.072296 0.219014 0.151813
    18 1.987305 -0.000002 0.000000 -0.025970 0.053561 -0.091013
    19 1.217773 0.000004 0.000002 -0.020700 -0.169366 0.027834
    20 9.578125 0.084412 -0.006870 1.606992 0.268796 1.517345
    21 -1.511719 11.007813 -4.187500 1.244308 0.425693 -2.037295
    22 0.000000 0.000000 0.000000 2.785285 -0.396270 -0.375403
    23 10.859375 0.000016 -0.000004 -0.279330 0.007173 -2.116317
    24 11.117188 0.015495 -0.057343 -0.701936 -0.729903 1.221545
    25 4.460938 -0.096558 -1.193359 -1.692327 0.052480 -0.517339
    26 1.534180 0.000004 0.000000 -0.001689 0.150425 -0.007557
    27 0.923828 0.000000 0.000000 -0.000168 0.591517 -0.001706
    28 3.871094 -0.338867 1.439453 -1.480019 0.189903 -1.416936
    29 1.197266 0.000004 -0.000017 -0.127146 1.001777 -0.146524
    30 0.866211 -0.000001 -0.000003 0.009351 0.733784 0.001142
    31 4.582031 0.205322 -0.326172 -1.539698 0.007204 -1.420212
    32 1.709961 0.000006 -0.000002 -0.026879 1.095842 -0.020771
    33 0.998047 -0.000001 0.000001 -0.016608 0.557664 0.006715
    34 4.332031 0.048065 0.604980 -1.502394 0.106974 -1.508525
    35 1.571289 0.000006 -0.000001 -0.060351 1.044535 -0.069431
    36 1.039063 -0.000008 0.000001 -0.009609 0.637010 -0.018240
    37 1.191406 -1.062500 -1.191406 2.688815 0.147029 -0.438545
    38 1.987305 0.000004 0.000002 0.027278 0.315271 0.098085
    39 1.217773 -0.000005 0.000003 0.021152 0.266873 -0.018769
    40 9.578125 -0.084412 -0.006874 -1.606853 -0.254477 -1.498648
    41 -0.871094 11.210938 -11.585938 0.000000 0.000000 -0.000001
    42 -2.337891 -5.980469 -3.394531 0.000000 0.000000 -0.000039
    43 -2.332031 -16.890625 -3.265625 0.000000 0.000000 -0.000039
    44 0.000000 0.000000 0.000000 0.000000 0.000000 0.000000
    45 0.000000 0.000000 0.000000 0.000000 0.000000 0.000000
    46 0.000000 0.000000 0.000000 0.000000 0.000000 0.000000
    47 0.000000 0.000000 0.000000 -1.570796 0.000000 0.000000
    48 0.000000 0.000000 0.000000 -1.570796 0.000000 0.000000
    49 0.000000 0.000000 0.000000 -1.570796 0.000000 0.000000
    50 0.000000 0.000000 0.000000 1.570796 0.000000 0.000000
    51 0.000000 0.000000 0.000000 1.570796 0.000000 0.000000
    52 0.000000 0.000000 0.000000 1.570796 0.000000 0.000000
    53 0.000000 0.000000 0.000000 1.570796 0.000000 0.000000
    54 0.000000 0.000000 0.000000 1.570796 0.000000 0.000000
    55 0.000000 0.000000 0.000000 1.570796 0.000000 0.000000
    56 0.000000 0.000000 0.000000 1.570796 0.000000 0.000000
    57 0.000000 0.000000 0.000000 1.570796 0.000000 0.000000
    58 0.000000 0.000000 0.000000 1.570796 0.000000 0.000000
    59 0.000000 0.000000 0.000000 1.570796 0.000000 0.000000
    60 0.000000 0.000000 0.000000 1.570796 0.000000 0.000000
    61 0.000000 0.000000 0.000000 1.570796 0.000000 0.000000
    62 0.000000 0.000001 0.000000 0.000000 0.000000 0.000000
    63 0.000000 0.000000 0.000000 0.000000 0.000000 0.000000
    64 0.000000 0.000000 0.000000 -3.141593 0.000000 0.000000
    65 0.000000 0.000000 0.000000 -1.570796 0.000000 0.000000
    66 0.000000 0.000000 0.000000 -1.570796 0.000000 0.000000
    67 0.000000 0.000000 0.000000 -1.570796 0.000000 0.000000
    68 0.000000 0.000000 0.000000 1.570796 0.000000 0.000000
    69 0.000000 0.000000 0.000000 1.570796 0.000000 0.000000
    70 0.000000 0.000000 0.000000 1.570796 0.000000 0.000000
    71 0.000000 0.000000 0.000001 1.570796 0.000000 0.000000
    72 0.000000 0.000000 0.000000 1.570796 0.000000 0.000000
    73 0.000000 0.000000 0.000000 1.570796 0.000000 0.000000
    74 0.000000 0.000000 0.000000 1.570796 0.000000 0.000000
    75 0.000000 0.000000 0.000000 1.570796 0.000000 0.000000
    76 -0.000001 0.000000 0.000000 1.570796 0.000000 0.000000
    77 0.000000 0.000000 0.000000 1.570796 0.000000 0.000000
    78 0.000000 0.000000 0.000000 1.570796 0.000000 0.000000
    79 0.000000 0.000000 0.000000 1.570796 0.000000 0.000000
end
