// Created by Crowbar 0.74
version 1
nodes
  0 "body" -1
  1 "l-upperarm-movement" -1
  2 "l-upperarm" 1
  3 "l-forearm" 2
  4 "lwrist" 3
  5 "l-index-low" 4
  6 "l-index-mid" 5
  7 "l-index-tip" 6
  8 "l-middle-low" 4
  9 "l-middle-mid" 8
  10 "l-middle-tip" 9
  11 "l-ring-low" 4
  12 "l-ring-mid" 11
  13 "l-ring-tip" 12
  14 "l-pinky-low" 4
  15 "l-pinky-mid" 14
  16 "l-pinky-tip" 15
  17 "l-thumb-low" 4
  18 "l-thumb-mid" 17
  19 "l-thumb-tip" 18
  20 "l-forearm-twist" 3
  21 "r-upperarm-movement" -1
  22 "r-upperarm" 21
  23 "r-forearm" 22
  24 "r-rist" 23
  25 "r-index-low" 24
  26 "r-index-mid" 25
  27 "r-index-tip" 26
  28 "r-pinky-low" 24
  29 "r-pinky-mid" 28
  30 "r-pinky-tip" 29
  31 "r-middle-low" 24
  32 "r-middle-mid" 31
  33 "r-middle-tip" 32
  34 "r-ring-low" 24
  35 "r-ring-mid" 34
  36 "r-ring-tip" 35
  37 "r-thumb-low" 24
  38 "r-thumb-mid" 37
  39 "r-thumb-tip" 38
  40 "r-forearm-twist" 23
  41 "Shell" -1
  42 "trigger" -1
  43 "pump." -1
  44 "ValveBiped.Bip01_R_UpperArm" 22
  45 "ValveBiped.Bip01_R_Forearm" 23
  46 "ValveBiped.Bip01_R_Hand" 24
  47 "ValveBiped.Bip01_R_Finger0" 37
  48 "ValveBiped.Bip01_R_Finger01" 38
  49 "ValveBiped.Bip01_R_Finger02" 39
  50 "ValveBiped.Bip01_R_Finger1" 25
  51 "ValveBiped.Bip01_R_Finger11" 26
  52 "ValveBiped.Bip01_R_Finger12" 27
  53 "ValveBiped.Bip01_R_Finger2" 31
  54 "ValveBiped.Bip01_R_Finger21" 32
  55 "ValveBiped.Bip01_R_Finger22" 33
  56 "ValveBiped.Bip01_R_Finger3" 34
  57 "ValveBiped.Bip01_R_Finger31" 35
  58 "ValveBiped.Bip01_R_Finger32" 36
  59 "ValveBiped.Bip01_R_Finger4" 28
  60 "ValveBiped.Bip01_R_Finger41" 29
  61 "ValveBiped.Bip01_R_Finger42" 30
  62 "ValveBiped.Bip01_L_UpperArm" 2
  63 "ValveBiped.Bip01_L_Forearm" 3
  64 "ValveBiped.Bip01_L_Hand" 4
  65 "ValveBiped.Bip01_L_Finger0" 17
  66 "ValveBiped.Bip01_L_Finger01" 18
  67 "ValveBiped.Bip01_L_Finger02" 19
  68 "ValveBiped.Bip01_L_Finger1" 5
  69 "ValveBiped.Bip01_L_Finger11" 6
  70 "ValveBiped.Bip01_L_Finger12" 7
  71 "ValveBiped.Bip01_L_Finger2" 8
  72 "ValveBiped.Bip01_L_Finger21" 9
  73 "ValveBiped.Bip01_L_Finger22" 10
  74 "ValveBiped.Bip01_L_Finger3" 11
  75 "ValveBiped.Bip01_L_Finger31" 12
  76 "ValveBiped.Bip01_L_Finger32" 13
  77 "ValveBiped.Bip01_L_Finger4" 14
  78 "ValveBiped.Bip01_L_Finger41" 15
  79 "ValveBiped.Bip01_L_Finger42" 16
end
skeleton
  time 0
    0 -2.338150 -2.993141 -3.589069 0.000000 0.000000 -0.000121
    1 7.195313 4.312500 -6.410156 -0.275968 0.424923 -1.104175
    2 0.000000 0.000000 0.000000 2.499906 0.221061 -0.622615
    3 10.859747 -0.000001 -0.000001 0.263528 0.006782 0.975798
    4 11.118949 -0.012917 -0.055607 -0.439714 -0.076172 -0.480030
    5 4.462505 0.096129 -1.190233 1.700635 -0.250355 0.126839
    6 1.533205 -0.000001 -0.000001 0.009042 0.848532 0.011307
    7 0.922225 0.000000 0.000000 0.002695 1.027849 0.003260
    8 4.581339 -0.202365 -0.322599 1.346533 -0.259536 0.638898
    9 1.706794 -0.000006 0.000000 3.036021 1.434016 3.039811
    10 0.995784 0.000001 0.000000 0.026837 -0.314590 -0.022355
    11 4.329579 -0.047878 0.601895 1.141283 -0.111227 1.109616
    12 1.571783 0.000002 0.000005 0.269056 1.478394 0.281975
    13 1.038471 0.000006 0.000000 0.006016 -0.410155 0.011865
    14 3.871905 0.337152 1.438553 1.121923 0.266193 1.782702
    15 1.197247 -0.000007 -0.000013 0.081066 0.567625 0.082907
    16 0.862615 0.000000 0.000000 -0.008129 -0.487940 -0.000955
    17 1.188218 1.062015 -1.188354 3.072296 0.219014 0.151813
    18 1.984254 -0.000001 0.000000 -0.025970 0.053561 -0.091013
    19 1.217773 0.000004 0.000002 -0.020700 -0.169366 0.027834
    20 9.582013 0.082096 -0.005725 1.606992 0.268796 1.517345
    21 -1.511719 11.007813 -4.187500 1.244308 0.425693 -2.037295
    22 0.000000 0.000000 0.000000 2.785285 -0.396270 -0.375403
    23 10.859730 0.000013 -0.000005 -0.279330 0.007173 -2.116317
    24 11.118959 0.012915 -0.055609 -0.701936 -0.729903 1.221545
    25 4.462496 -0.096127 -1.190239 -1.692327 0.052480 -0.517339
    26 1.533207 0.000003 0.000000 -0.001689 0.150425 -0.007557
    27 0.922219 0.000000 0.000000 -0.000168 0.591517 -0.001706
    28 3.871094 -0.338867 1.439453 -1.480019 0.189903 -1.416936
    29 1.197266 0.000004 -0.000017 -0.127146 1.001777 -0.146524
    30 0.866211 -0.000001 -0.000003 0.009351 0.733784 0.001142
    31 4.582031 0.205322 -0.326172 -1.539698 0.007204 -1.420212
    32 1.709961 0.000006 -0.000002 -0.026879 1.095842 -0.020771
    33 0.998047 -0.000001 0.000001 -0.016608 0.557664 0.006715
    34 4.332031 0.048065 0.604980 -1.502394 0.106974 -1.508525
    35 1.571289 0.000006 -0.000001 -0.060351 1.044535 -0.069431
    36 1.039063 -0.000008 0.000001 -0.009609 0.637010 -0.018240
    37 1.191406 -1.062500 -1.191406 2.688815 0.147029 -0.438545
    38 1.987305 0.000004 0.000002 0.027278 0.315271 0.098085
    39 1.217773 -0.000005 0.000003 0.021152 0.266873 -0.018769
    40 9.578125 -0.084412 -0.006874 -1.606853 -0.254477 -1.498648
    41 -0.871094 11.210938 -11.585938 0.000000 0.000000 -0.000001
    42 -2.339282 -5.982450 -3.391970 0.000000 0.000000 -0.000121
    43 -2.335242 -16.892002 -3.265871 0.000000 0.000000 -0.000121
    44 0.000000 0.000000 0.000000 0.000000 0.000000 0.000000
    45 0.000000 0.000000 0.000000 0.000000 0.000000 0.000000
    46 0.000000 0.000000 0.000000 0.000000 0.000000 0.000000
    47 0.000000 0.000000 0.000000 -1.570796 0.000000 0.000000
    48 0.000000 0.000000 0.000000 -1.570796 0.000000 0.000000
    49 0.000000 0.000000 0.000000 -1.570796 0.000000 0.000000
    50 0.000000 0.000000 0.000000 1.570796 0.000000 0.000000
    51 0.000000 0.000000 0.000000 1.570796 0.000000 0.000000
    52 0.000000 0.000000 0.000000 1.570796 0.000000 0.000000
    53 0.000000 0.000000 0.000000 1.570796 0.000000 0.000000
    54 0.000000 0.000000 0.000000 1.570796 0.000000 0.000000
    55 0.000000 0.000000 0.000000 1.570796 0.000000 0.000000
    56 0.000000 0.000000 0.000000 1.570796 0.000000 0.000000
    57 0.000000 0.000000 0.000000 1.570796 0.000000 0.000000
    58 0.000000 0.000000 0.000000 1.570796 0.000000 0.000000
    59 0.000000 0.000000 0.000000 1.570796 0.000000 0.000000
    60 0.000000 0.000000 0.000000 1.570796 0.000000 0.000000
    61 0.000000 0.000000 0.000000 1.570796 0.000000 0.000000
    62 0.000000 0.000001 0.000000 0.000000 0.000000 0.000000
    63 0.000000 0.000000 0.000000 0.000000 0.000000 0.000000
    64 0.000000 0.000000 0.000000 -3.141593 0.000000 0.000000
    65 0.000000 0.000000 0.000000 -1.570796 0.000000 0.000000
    66 0.000000 0.000000 0.000000 -1.570796 0.000000 0.000000
    67 0.000000 0.000000 0.000000 -1.570796 0.000000 0.000000
    68 0.000000 0.000000 0.000000 1.570796 0.000000 0.000000
    69 0.000000 0.000000 0.000000 1.570796 0.000000 0.000000
    70 0.000000 0.000000 0.000000 1.570796 0.000000 0.000000
    71 0.000000 0.000000 0.000001 1.570796 0.000000 0.000000
    72 0.000000 0.000000 0.000000 1.570796 0.000000 0.000000
    73 0.000000 0.000000 0.000000 1.570796 0.000000 0.000000
    74 0.000000 0.000000 0.000000 1.570796 0.000000 0.000000
    75 0.000000 0.000000 0.000000 1.570796 0.000000 0.000000
    76 -0.000001 0.000000 0.000000 1.570796 0.000000 0.000000
    77 0.000000 0.000000 0.000000 1.570796 0.000000 0.000000
    78 0.000000 0.000000 0.000000 1.570796 0.000000 0.000000
    79 0.000000 0.000000 0.000000 1.570796 0.000000 0.000000
  time 1
    0 -2.338150 -2.993141 -3.589069 0.025393 -0.019632 -0.001553
    1 7.195313 4.312500 -6.410156 -0.275968 0.424923 -1.104175
    2 0.000000 0.000000 0.000000 2.509731 0.232201 -0.609862
    3 10.859747 -0.000001 -0.000001 0.263660 0.006866 0.987024
    4 11.118949 -0.012917 -0.055607 -0.435727 -0.090278 -0.500132
    5 4.462505 0.096129 -1.190233 1.700635 -0.250355 0.126839
    6 1.533205 -0.000001 -0.000001 0.009042 0.848532 0.011307
    7 0.922225 0.000000 0.000000 0.002251 0.943826 0.002889
    8 4.581339 -0.202365 -0.322599 1.346533 -0.259536 0.638898
    9 1.706794 -0.000006 0.000000 3.036021 1.434016 3.039811
    10 0.995784 0.000001 0.000000 0.026837 -0.314590 -0.022355
    11 4.329579 -0.047878 0.601895 1.141283 -0.111227 1.109616
    12 1.571783 0.000002 0.000005 0.269056 1.478394 0.281975
    13 1.038471 0.000006 0.000000 0.006016 -0.410155 0.011865
    14 3.871905 0.337152 1.438553 1.121923 0.266193 1.782702
    15 1.197247 -0.000007 -0.000013 0.081066 0.567625 0.082907
    16 0.862615 0.000000 0.000000 -0.008129 -0.487940 -0.000955
    17 1.188218 1.062015 -1.188354 3.072296 0.219014 0.151813
    18 1.984254 -0.000001 0.000000 -0.026138 0.071483 -0.091528
    19 1.217773 0.000004 0.000002 -0.020700 -0.169366 0.027834
    20 9.582013 0.082096 -0.005725 1.606992 0.268796 1.517345
    21 -1.511719 11.007813 -4.187500 1.244308 0.425693 -2.037295
    22 0.000000 0.000000 0.000000 2.785488 -0.398975 -0.368669
    23 10.859730 0.000013 -0.000005 -0.279294 0.007173 -2.113265
    24 11.118959 0.012915 -0.055609 -0.693720 -0.758568 1.239233
    25 4.462496 -0.096127 -1.190239 -1.692015 0.052947 -0.512929
    26 1.533207 0.000003 0.000000 -0.001689 0.147093 -0.007557
    27 0.922219 0.000000 0.000000 -0.000168 0.582654 -0.001706
    28 3.871094 -0.338867 1.439453 -1.480019 0.189903 -1.416936
    29 1.197266 0.000004 -0.000017 -0.127146 1.001777 -0.146524
    30 0.866211 -0.000001 -0.000003 0.009351 0.733784 0.001142
    31 4.582031 0.205322 -0.326172 -1.539698 0.007204 -1.420212
    32 1.709961 0.000006 -0.000002 -0.026879 1.095842 -0.020771
    33 0.998047 -0.000001 0.000001 -0.016608 0.557664 0.006715
    34 4.332031 0.048065 0.604980 -1.502394 0.106974 -1.508525
    35 1.571289 0.000006 -0.000001 -0.060351 1.044535 -0.069431
    36 1.039063 -0.000008 0.000001 -0.009609 0.637010 -0.018240
    37 1.191406 -1.062500 -1.191406 2.688815 0.147029 -0.438545
    38 1.987305 0.000004 0.000002 0.027278 0.315271 0.098085
    39 1.217773 -0.000005 0.000003 0.021152 0.266873 -0.018769
    40 9.578125 -0.084412 -0.006874 -1.606853 -0.254477 -1.498648
    41 -0.871094 11.210938 -11.585938 0.000000 0.000000 -0.000001
    42 -2.351001 -5.986357 -3.470098 0.025393 -0.019632 -0.001553
    43 -2.358681 -16.899815 -3.617445 0.025393 -0.019632 -0.001553
    44 0.000000 0.000000 0.000000 0.000000 0.000000 0.000000
    45 0.000000 0.000000 0.000000 0.000000 0.000000 0.000000
    46 0.000000 0.000000 0.000000 0.000000 0.000000 0.000000
    47 0.000000 0.000000 0.000000 -1.570796 0.000000 0.000000
    48 0.000000 0.000000 0.000000 -1.570796 0.000000 0.000000
    49 0.000000 0.000000 0.000000 -1.570796 0.000000 0.000000
    50 0.000000 0.000000 0.000000 1.570796 0.000000 0.000000
    51 0.000000 0.000000 0.000000 1.570796 0.000000 0.000000
    52 0.000000 0.000000 0.000000 1.570796 0.000000 0.000000
    53 0.000000 0.000000 0.000000 1.570796 0.000000 0.000000
    54 0.000000 0.000000 0.000000 1.570796 0.000000 0.000000
    55 0.000000 0.000000 0.000000 1.570796 0.000000 0.000000
    56 0.000000 0.000000 0.000000 1.570796 0.000000 0.000000
    57 0.000000 0.000000 0.000000 1.570796 0.000000 0.000000
    58 0.000000 0.000000 0.000000 1.570796 0.000000 0.000000
    59 0.000000 0.000000 0.000000 1.570796 0.000000 0.000000
    60 0.000000 0.000000 0.000000 1.570796 0.000000 0.000000
    61 0.000000 0.000000 0.000000 1.570796 0.000000 0.000000
    62 0.000000 0.000001 0.000000 0.000000 0.000000 0.000000
    63 0.000000 0.000000 0.000000 0.000000 0.000000 0.000000
    64 0.000000 0.000000 0.000000 -3.141593 0.000000 0.000000
    65 0.000000 0.000000 0.000000 -1.570796 0.000000 0.000000
    66 0.000000 0.000000 0.000000 -1.570796 0.000000 0.000000
    67 0.000000 0.000000 0.000000 -1.570796 0.000000 0.000000
    68 0.000000 0.000000 0.000000 1.570796 0.000000 0.000000
    69 0.000000 0.000000 0.000000 1.570796 0.000000 0.000000
    70 0.000000 0.000000 0.000000 1.570796 0.000000 0.000000
    71 0.000000 0.000000 0.000001 1.570796 0.000000 0.000000
    72 0.000000 0.000000 0.000000 1.570796 0.000000 0.000000
    73 0.000000 0.000000 0.000000 1.570796 0.000000 0.000000
    74 0.000000 0.000000 0.000000 1.570796 0.000000 0.000000
    75 0.000000 0.000000 0.000000 1.570796 0.000000 0.000000
    76 -0.000001 0.000000 0.000000 1.570796 0.000000 0.000000
    77 0.000000 0.000000 0.000000 1.570796 0.000000 0.000000
    78 0.000000 0.000000 0.000000 1.570796 0.000000 0.000000
    79 0.000000 0.000000 0.000000 1.570796 0.000000 0.000000
  time 2
    0 -2.338150 -2.993141 -3.589069 0.050786 -0.057757 -0.002985
    1 7.195313 4.312500 -6.410156 -0.275968 0.424923 -1.104175
    2 0.000000 0.000000 0.000000 2.518976 0.242611 -0.594438
    3 10.859747 -0.000001 -0.000001 0.263840 0.006986 1.002150
    4 11.118949 -0.012917 -0.055607 -0.413052 -0.111296 -0.528018
    5 4.462505 0.096129 -1.190233 1.700635 -0.250355 0.126839
    6 1.533205 -0.000001 -0.000001 0.009042 0.848532 0.011307
    7 0.922225 0.000000 0.000000 0.001437 0.733752 0.002278
    8 4.581339 -0.202365 -0.322599 1.346533 -0.259536 0.638898
    9 1.706794 -0.000006 0.000000 3.036021 1.434016 3.039811
    10 0.995784 0.000001 0.000000 0.026837 -0.314590 -0.022355
    11 4.329579 -0.047878 0.601895 1.141283 -0.111227 1.109616
    12 1.571783 0.000002 0.000005 0.269056 1.478394 0.281975
    13 1.038471 0.000006 0.000000 0.006016 -0.410155 0.011865
    14 3.871905 0.337152 1.438553 1.121923 0.266193 1.782702
    15 1.197247 -0.000007 -0.000013 0.081066 0.567625 0.082907
    16 0.862615 0.000000 0.000000 -0.008129 -0.487940 -0.000955
    17 1.188218 1.062015 -1.188354 3.072296 0.219014 0.151813
    18 1.984254 -0.000001 0.000000 -0.026593 0.119611 -0.092954
    19 1.217773 0.000004 0.000002 -0.020700 -0.169366 0.027834
    20 9.582013 0.082096 -0.005725 1.606992 0.268796 1.517345
    21 -1.511719 11.007813 -4.187500 1.244308 0.425693 -2.037295
    22 0.000000 0.000000 0.000000 2.787790 -0.400401 -0.365541
    23 10.859730 0.000013 -0.000005 -0.279258 0.007209 -2.109782
    24 11.118959 0.012915 -0.055609 -0.665444 -0.791665 1.246823
    25 4.462496 -0.096127 -1.190239 -1.691129 0.054337 -0.500453
    26 1.533207 0.000003 0.000000 -0.001689 0.137709 -0.007557
    27 0.922219 0.000000 0.000000 -0.000168 0.557600 -0.001706
    28 3.871094 -0.338867 1.439453 -1.480019 0.189903 -1.416936
    29 1.197266 0.000004 -0.000017 -0.127146 1.001777 -0.146524
    30 0.866211 -0.000001 -0.000003 0.009351 0.733784 0.001142
    31 4.582031 0.205322 -0.326172 -1.539698 0.007204 -1.420212
    32 1.709961 0.000006 -0.000002 -0.026879 1.095842 -0.020771
    33 0.998047 -0.000001 0.000001 -0.016608 0.557664 0.006715
    34 4.332031 0.048065 0.604980 -1.502394 0.106974 -1.508525
    35 1.571289 0.000006 -0.000001 -0.060351 1.044535 -0.069431
    36 1.039063 -0.000008 0.000001 -0.009609 0.637010 -0.018240
    37 1.191406 -1.062500 -1.191406 2.688815 0.147029 -0.438545
    38 1.987305 0.000004 0.000002 0.027278 0.315271 0.098085
    39 1.217773 -0.000005 0.000003 0.021152 0.266873 -0.018769
    40 9.578125 -0.084412 -0.006874 -1.606853 -0.254477 -1.498648
    41 -0.871094 11.210938 -11.585938 0.000000 0.000000 -0.000001
    42 -2.354907 -5.986357 -3.544319 0.050786 -0.057757 -0.002985
    43 -2.354774 -16.892002 -3.969018 0.050786 -0.057757 -0.002985
    44 0.000000 0.000000 0.000000 0.000000 0.000000 0.000000
    45 0.000000 0.000000 0.000000 0.000000 0.000000 0.000000
    46 0.000000 0.000000 0.000000 0.000000 0.000000 0.000000
    47 0.000000 0.000000 0.000000 -1.570796 0.000000 0.000000
    48 0.000000 0.000000 0.000000 -1.570796 0.000000 0.000000
    49 0.000000 0.000000 0.000000 -1.570796 0.000000 0.000000
    50 0.000000 0.000000 0.000000 1.570796 0.000000 0.000000
    51 0.000000 0.000000 0.000000 1.570796 0.000000 0.000000
    52 0.000000 0.000000 0.000000 1.570796 0.000000 0.000000
    53 0.000000 0.000000 0.000000 1.570796 0.000000 0.000000
    54 0.000000 0.000000 0.000000 1.570796 0.000000 0.000000
    55 0.000000 0.000000 0.000000 1.570796 0.000000 0.000000
    56 0.000000 0.000000 0.000000 1.570796 0.000000 0.000000
    57 0.000000 0.000000 0.000000 1.570796 0.000000 0.000000
    58 0.000000 0.000000 0.000000 1.570796 0.000000 0.000000
    59 0.000000 0.000000 0.000000 1.570796 0.000000 0.000000
    60 0.000000 0.000000 0.000000 1.570796 0.000000 0.000000
    61 0.000000 0.000000 0.000000 1.570796 0.000000 0.000000
    62 0.000000 0.000001 0.000000 0.000000 0.000000 0.000000
    63 0.000000 0.000000 0.000000 0.000000 0.000000 0.000000
    64 0.000000 0.000000 0.000000 -3.141593 0.000000 0.000000
    65 0.000000 0.000000 0.000000 -1.570796 0.000000 0.000000
    66 0.000000 0.000000 0.000000 -1.570796 0.000000 0.000000
    67 0.000000 0.000000 0.000000 -1.570796 0.000000 0.000000
    68 0.000000 0.000000 0.000000 1.570796 0.000000 0.000000
    69 0.000000 0.000000 0.000000 1.570796 0.000000 0.000000
    70 0.000000 0.000000 0.000000 1.570796 0.000000 0.000000
    71 0.000000 0.000000 0.000001 1.570796 0.000000 0.000000
    72 0.000000 0.000000 0.000000 1.570796 0.000000 0.000000
    73 0.000000 0.000000 0.000000 1.570796 0.000000 0.000000
    74 0.000000 0.000000 0.000000 1.570796 0.000000 0.000000
    75 0.000000 0.000000 0.000000 1.570796 0.000000 0.000000
    76 -0.000001 0.000000 0.000000 1.570796 0.000000 0.000000
    77 0.000000 0.000000 0.000000 1.570796 0.000000 0.000000
    78 0.000000 0.000000 0.000000 1.570796 0.000000 0.000000
    79 0.000000 0.000000 0.000000 1.570796 0.000000 0.000000
  time 3
    0 -2.467060 -3.469718 -3.667197 -0.050391 -0.098046 0.021699
    1 7.195313 4.312500 -6.410156 -0.275968 0.424923 -1.104175
    2 0.000000 0.000000 0.000000 2.509780 0.248469 -0.546369
    3 10.859747 -0.000001 -0.000001 0.265170 0.007741 1.106195
    4 11.118949 -0.012917 -0.055607 -0.252784 -0.107131 -0.562970
    5 4.462505 0.096129 -1.190233 1.706663 -0.192482 0.108323
    6 1.533205 -0.000001 -0.000001 0.007028 0.712204 0.009881
    7 0.922225 0.000000 0.000000 0.000753 0.460670 0.001882
    8 4.581339 -0.202365 -0.322599 1.372012 -0.218729 0.550862
    9 1.706794 -0.000006 0.000000 0.085753 1.433683 0.088353
    10 0.995784 0.000001 0.000000 0.026789 -0.311925 -0.022283
    11 4.329579 -0.047878 0.601895 1.173809 -0.107919 0.951251
    12 1.571783 0.000002 0.000005 0.057984 1.222177 0.067811
    13 1.038471 0.000006 0.000000 0.005920 -0.383742 0.012117
    14 3.871905 0.337152 1.438553 1.164396 0.201274 1.502825
    15 1.197247 -0.000007 -0.000013 0.075839 0.486236 0.074203
    16 0.862615 0.000000 0.000000 -0.008153 -0.459125 -0.000955
    17 1.188218 1.062015 -1.188354 3.070593 0.273400 0.147439
    18 1.984254 -0.000001 0.000000 -0.027240 0.189254 -0.095028
    19 1.217773 0.000004 0.000002 -0.020700 -0.169366 0.027834
    20 9.582013 0.082096 -0.005725 1.606117 0.215187 1.515152
    21 -1.511719 11.007813 -4.187500 1.244308 0.425693 -2.037295
    22 0.000000 0.000000 0.000000 2.794285 -0.365442 -0.401086
    23 10.859730 0.000013 -0.000005 -0.278731 0.007521 -2.067305
    24 11.118959 0.012915 -0.055609 -0.572854 -0.696769 1.075638
    25 4.462496 -0.096127 -1.190239 -1.689714 0.056459 -0.481169
    26 1.533207 0.000003 0.000000 -0.001689 0.123208 -0.007557
    27 0.922219 0.000000 0.000000 -0.000168 0.518932 -0.001706
    28 3.871094 -0.338867 1.439453 -1.480019 0.189903 -1.416936
    29 1.197266 0.000004 -0.000017 -0.127146 1.001777 -0.146524
    30 0.866211 -0.000001 -0.000003 0.009351 0.733784 0.001142
    31 4.582031 0.205322 -0.326172 -1.539698 0.007204 -1.420212
    32 1.709961 0.000006 -0.000002 -0.026879 1.095842 -0.020771
    33 0.998047 -0.000001 0.000001 -0.016608 0.557664 0.006715
    34 4.332031 0.048065 0.604980 -1.502394 0.106974 -1.508525
    35 1.571289 0.000006 -0.000001 -0.060351 1.044535 -0.069431
    36 1.039063 -0.000008 0.000001 -0.009609 0.637010 -0.018240
    37 1.191406 -1.062500 -1.191406 2.688815 0.147029 -0.438545
    38 1.987305 0.000004 0.000002 0.027278 0.315271 0.098085
    39 1.217773 -0.000005 0.000003 0.021152 0.266873 -0.018769
    40 9.578125 -0.084412 -0.006874 -1.606853 -0.254477 -1.498648
    41 -0.871094 11.210938 -11.585938 0.000000 0.000000 -0.000001
    42 -2.436941 -6.447308 -3.329468 -0.050391 -0.098046 0.021699
    43 -2.264928 -17.333422 -2.660384 -0.050391 -0.098046 0.021699
    44 0.000000 0.000000 0.000000 0.000000 0.000000 0.000000
    45 0.000000 0.000000 0.000000 0.000000 0.000000 0.000000
    46 0.000000 0.000000 0.000000 0.000000 0.000000 0.000000
    47 0.000000 0.000000 0.000000 -1.570796 0.000000 0.000000
    48 0.000000 0.000000 0.000000 -1.570796 0.000000 0.000000
    49 0.000000 0.000000 0.000000 -1.570796 0.000000 0.000000
    50 0.000000 0.000000 0.000000 1.570796 0.000000 0.000000
    51 0.000000 0.000000 0.000000 1.570796 0.000000 0.000000
    52 0.000000 0.000000 0.000000 1.570796 0.000000 0.000000
    53 0.000000 0.000000 0.000000 1.570796 0.000000 0.000000
    54 0.000000 0.000000 0.000000 1.570796 0.000000 0.000000
    55 0.000000 0.000000 0.000000 1.570796 0.000000 0.000000
    56 0.000000 0.000000 0.000000 1.570796 0.000000 0.000000
    57 0.000000 0.000000 0.000000 1.570796 0.000000 0.000000
    58 0.000000 0.000000 0.000000 1.570796 0.000000 0.000000
    59 0.000000 0.000000 0.000000 1.570796 0.000000 0.000000
    60 0.000000 0.000000 0.000000 1.570796 0.000000 0.000000
    61 0.000000 0.000000 0.000000 1.570796 0.000000 0.000000
    62 0.000000 0.000001 0.000000 0.000000 0.000000 0.000000
    63 0.000000 0.000000 0.000000 0.000000 0.000000 0.000000
    64 0.000000 0.000000 0.000000 -3.141593 0.000000 0.000000
    65 0.000000 0.000000 0.000000 -1.570796 0.000000 0.000000
    66 0.000000 0.000000 0.000000 -1.570796 0.000000 0.000000
    67 0.000000 0.000000 0.000000 -1.570796 0.000000 0.000000
    68 0.000000 0.000000 0.000000 1.570796 0.000000 0.000000
    69 0.000000 0.000000 0.000000 1.570796 0.000000 0.000000
    70 0.000000 0.000000 0.000000 1.570796 0.000000 0.000000
    71 0.000000 0.000000 0.000001 1.570796 0.000000 0.000000
    72 0.000000 0.000000 0.000000 1.570796 0.000000 0.000000
    73 0.000000 0.000000 0.000000 1.570796 0.000000 0.000000
    74 0.000000 0.000000 0.000000 1.570796 0.000000 0.000000
    75 0.000000 0.000000 0.000000 1.570796 0.000000 0.000000
    76 -0.000001 0.000000 0.000000 1.570796 0.000000 0.000000
    77 0.000000 0.000000 0.000000 1.570796 0.000000 0.000000
    78 0.000000 0.000000 0.000000 1.570796 0.000000 0.000000
    79 0.000000 0.000000 0.000000 1.570796 0.000000 0.000000
  time 4
    0 -2.771757 -4.586939 -3.846890 -0.291228 -0.141866 0.085641
    1 7.195313 4.312500 -6.410156 -0.275968 0.424923 -1.104175
    2 0.000000 0.000000 0.000000 2.507311 0.272340 -0.432573
    3 10.859747 -0.000001 -0.000001 0.267854 0.008759 1.304200
    4 11.118949 -0.012917 -0.055607 0.048292 -0.061839 -0.566485
    5 4.462505 0.096129 -1.190233 1.719990 -0.065157 0.067515
    6 1.533205 -0.000001 -0.000001 0.003840 0.412258 0.008167
    7 0.922225 0.000000 0.000000 0.000226 0.187553 0.001726
    8 4.581339 -0.202365 -0.322599 1.428376 -0.127993 0.357162
    9 1.706794 -0.000006 0.000000 0.013845 0.834171 0.012125
    10 0.995784 0.000001 0.000000 0.026646 -0.300193 -0.021947
    11 4.329579 -0.047878 0.601895 1.245393 -0.099590 0.602810
    12 1.571783 0.000002 0.000005 0.020879 0.652784 0.022137
    13 1.038471 0.000006 0.000000 0.005741 -0.310446 0.012704
    14 3.871905 0.337152 1.438553 1.257876 0.058436 0.886855
    15 1.197247 -0.000007 -0.000013 0.069255 0.306845 0.058854
    16 0.862615 0.000000 0.000000 -0.008237 -0.382000 -0.000931
    17 1.188218 1.062015 -1.188354 3.066840 0.393054 0.137779
    18 1.984254 -0.000001 0.000000 -0.028031 0.271821 -0.097473
    19 1.217773 0.000004 0.000002 -0.020700 -0.169366 0.027834
    20 9.582013 0.082096 -0.005725 1.604955 0.082076 1.509939
    21 -1.511719 11.007813 -4.187500 1.244308 0.425693 -2.037295
    22 0.000000 0.000000 0.000000 2.800757 -0.283602 -0.447051
    23 10.859730 0.000013 -0.000005 -0.277041 0.008300 -1.940088
    24 11.118959 0.012915 -0.055609 -0.473258 -0.461431 0.744113
    25 4.462496 -0.096127 -1.190239 -1.687929 0.059191 -0.456325
    26 1.533207 0.000003 0.000000 -0.001689 0.104512 -0.007557
    27 0.922219 0.000000 0.000000 -0.000168 0.469079 -0.001706
    28 3.871094 -0.338867 1.439453 -1.480019 0.189903 -1.416936
    29 1.197266 0.000004 -0.000017 -0.127146 1.001777 -0.146524
    30 0.866211 -0.000001 -0.000003 0.009351 0.733784 0.001142
    31 4.582031 0.205322 -0.326172 -1.539698 0.007204 -1.420212
    32 1.709961 0.000006 -0.000002 -0.026879 1.095842 -0.020771
    33 0.998047 -0.000001 0.000001 -0.016608 0.557664 0.006715
    34 4.332031 0.048065 0.604980 -1.502394 0.106974 -1.508525
    35 1.571289 0.000006 -0.000001 -0.060351 1.044535 -0.069431
    36 1.039063 -0.000008 0.000001 -0.009609 0.637010 -0.018240
    37 1.191406 -1.062500 -1.191406 2.688815 0.147029 -0.438545
    38 1.987305 0.000004 0.000002 0.027278 0.315271 0.098085
    39 1.217773 -0.000005 0.000003 0.021152 0.266873 -0.018769
    40 9.578125 -0.084412 -0.006874 -1.606853 -0.254477 -1.498648
    41 -0.871094 11.210938 -11.585938 0.000000 0.000000 -0.000001
    42 -2.686949 -7.392650 -2.821640 -0.291228 -0.141866 0.085641
    43 -2.249302 -17.813905 0.406116 -0.291228 -0.141866 0.085641
    44 0.000000 0.000000 0.000000 0.000000 0.000000 0.000000
    45 0.000000 0.000000 0.000000 0.000000 0.000000 0.000000
    46 0.000000 0.000000 0.000000 0.000000 0.000000 0.000000
    47 0.000000 0.000000 0.000000 -1.570796 0.000000 0.000000
    48 0.000000 0.000000 0.000000 -1.570796 0.000000 0.000000
    49 0.000000 0.000000 0.000000 -1.570796 0.000000 0.000000
    50 0.000000 0.000000 0.000000 1.570796 0.000000 0.000000
    51 0.000000 0.000000 0.000000 1.570796 0.000000 0.000000
    52 0.000000 0.000000 0.000000 1.570796 0.000000 0.000000
    53 0.000000 0.000000 0.000000 1.570796 0.000000 0.000000
    54 0.000000 0.000000 0.000000 1.570796 0.000000 0.000000
    55 0.000000 0.000000 0.000000 1.570796 0.000000 0.000000
    56 0.000000 0.000000 0.000000 1.570796 0.000000 0.000000
    57 0.000000 0.000000 0.000000 1.570796 0.000000 0.000000
    58 0.000000 0.000000 0.000000 1.570796 0.000000 0.000000
    59 0.000000 0.000000 0.000000 1.570796 0.000000 0.000000
    60 0.000000 0.000000 0.000000 1.570796 0.000000 0.000000
    61 0.000000 0.000000 0.000000 1.570796 0.000000 0.000000
    62 0.000000 0.000001 0.000000 0.000000 0.000000 0.000000
    63 0.000000 0.000000 0.000000 0.000000 0.000000 0.000000
    64 0.000000 0.000000 0.000000 -3.141593 0.000000 0.000000
    65 0.000000 0.000000 0.000000 -1.570796 0.000000 0.000000
    66 0.000000 0.000000 0.000000 -1.570796 0.000000 0.000000
    67 0.000000 0.000000 0.000000 -1.570796 0.000000 0.000000
    68 0.000000 0.000000 0.000000 1.570796 0.000000 0.000000
    69 0.000000 0.000000 0.000000 1.570796 0.000000 0.000000
    70 0.000000 0.000000 0.000000 1.570796 0.000000 0.000000
    71 0.000000 0.000000 0.000001 1.570796 0.000000 0.000000
    72 0.000000 0.000000 0.000000 1.570796 0.000000 0.000000
    73 0.000000 0.000000 0.000000 1.570796 0.000000 0.000000
    74 0.000000 0.000000 0.000000 1.570796 0.000000 0.000000
    75 0.000000 0.000000 0.000000 1.570796 0.000000 0.000000
    76 -0.000001 0.000000 0.000000 1.570796 0.000000 0.000000
    77 0.000000 0.000000 0.000000 1.570796 0.000000 0.000000
    78 0.000000 0.000000 0.000000 1.570796 0.000000 0.000000
    79 0.000000 0.000000 0.000000 1.570796 0.000000 0.000000
  time 5
    0 -3.150675 -5.876041 -4.022676 -0.577812 -0.184624 0.174099
    1 7.195313 4.312500 -6.410156 -0.275968 0.424923 -1.104175
    2 0.000000 0.000000 0.000000 2.540127 0.293779 -0.276321
    3 10.859747 -0.000001 -0.000001 0.270000 0.009191 1.452260
    4 11.118949 -0.012917 -0.055607 0.337763 0.020449 -0.455696
    5 4.462505 0.096129 -1.190233 1.733293 0.062155 0.026744
    6 1.533205 -0.000001 -0.000001 0.001419 0.112312 0.007532
    7 0.922225 0.000000 0.000000 -0.000121 -0.022521 0.001690
    8 4.581339 -0.202365 -0.322599 1.485398 -0.035065 0.163410
    9 1.706794 -0.000006 0.000000 0.012460 0.234279 0.004336
    10 0.995784 0.000001 0.000000 0.026430 -0.273856 -0.021192
    11 4.329579 -0.047878 0.601895 1.316977 -0.088660 0.254277
    12 1.571783 0.000002 0.000005 0.021622 0.082835 0.012070
    13 1.038471 0.000006 0.000000 0.005609 -0.199807 0.013363
    14 3.871905 0.337152 1.438553 1.351368 -0.084426 0.270831
    15 1.197247 -0.000007 -0.000013 0.067749 0.127167 0.047016
    16 0.862615 0.000000 0.000000 -0.008333 -0.270573 -0.000895
    17 1.188218 1.062015 -1.188354 3.063107 0.512720 0.128119
    18 1.984254 -0.000001 0.000000 -0.028846 0.358684 -0.100025
    19 1.217773 0.000004 0.000002 -0.020700 -0.169366 0.027834
    20 9.582013 0.082096 -0.005725 1.605326 -0.088466 1.503599
    21 -1.511719 11.007813 -4.187500 1.244308 0.425693 -2.037295
    22 0.000000 0.000000 0.000000 2.802375 -0.191630 -0.444102
    23 10.859730 0.000013 -0.000005 -0.274237 0.009079 -1.742105
    24 11.118959 0.012915 -0.055609 -0.413077 -0.196282 0.389139
    25 4.462496 -0.096127 -1.190239 -1.685807 0.062403 -0.427167
    26 1.533207 0.000003 0.000000 -0.001689 0.082556 -0.007557
    27 0.922219 0.000000 0.000000 -0.000168 0.410534 -0.001706
    28 3.871094 -0.338867 1.439453 -1.480019 0.189903 -1.416936
    29 1.197266 0.000004 -0.000017 -0.127146 1.001777 -0.146524
    30 0.866211 -0.000001 -0.000003 0.009351 0.733784 0.001142
    31 4.582031 0.205322 -0.326172 -1.539698 0.007204 -1.420212
    32 1.709961 0.000006 -0.000002 -0.026879 1.095842 -0.020771
    33 0.998047 -0.000001 0.000001 -0.016608 0.557664 0.006715
    34 4.332031 0.048065 0.604980 -1.502394 0.106974 -1.508525
    35 1.571289 0.000006 -0.000001 -0.060351 1.044535 -0.069431
    36 1.039063 -0.000008 0.000001 -0.009609 0.637010 -0.018240
    37 1.191406 -1.062500 -1.191406 2.688815 0.147029 -0.438545
    38 1.987305 0.000004 0.000002 0.027278 0.315271 0.098085
    39 1.217773 -0.000005 0.000003 0.021152 0.266873 -0.018769
    40 9.578125 -0.084412 -0.006874 -1.606853 -0.254477 -1.498648
    41 -0.871094 11.210938 -11.585938 0.000000 0.000000 -0.000001
    42 -3.069773 -8.291115 -2.266936 -0.577812 -0.184624 0.174099
    43 -2.593063 -17.423269 3.695279 -0.577812 -0.184624 0.174099
    44 0.000000 0.000000 0.000000 0.000000 0.000000 0.000000
    45 0.000000 0.000000 0.000000 0.000000 0.000000 0.000000
    46 0.000000 0.000000 0.000000 0.000000 0.000000 0.000000
    47 0.000000 0.000000 0.000000 -1.570796 0.000000 0.000000
    48 0.000000 0.000000 0.000000 -1.570796 0.000000 0.000000
    49 0.000000 0.000000 0.000000 -1.570796 0.000000 0.000000
    50 0.000000 0.000000 0.000000 1.570796 0.000000 0.000000
    51 0.000000 0.000000 0.000000 1.570796 0.000000 0.000000
    52 0.000000 0.000000 0.000000 1.570796 0.000000 0.000000
    53 0.000000 0.000000 0.000000 1.570796 0.000000 0.000000
    54 0.000000 0.000000 0.000000 1.570796 0.000000 0.000000
    55 0.000000 0.000000 0.000000 1.570796 0.000000 0.000000
    56 0.000000 0.000000 0.000000 1.570796 0.000000 0.000000
    57 0.000000 0.000000 0.000000 1.570796 0.000000 0.000000
    58 0.000000 0.000000 0.000000 1.570796 0.000000 0.000000
    59 0.000000 0.000000 0.000000 1.570796 0.000000 0.000000
    60 0.000000 0.000000 0.000000 1.570796 0.000000 0.000000
    61 0.000000 0.000000 0.000000 1.570796 0.000000 0.000000
    62 0.000000 0.000001 0.000000 0.000000 0.000000 0.000000
    63 0.000000 0.000000 0.000000 0.000000 0.000000 0.000000
    64 0.000000 0.000000 0.000000 -3.141593 0.000000 0.000000
    65 0.000000 0.000000 0.000000 -1.570796 0.000000 0.000000
    66 0.000000 0.000000 0.000000 -1.570796 0.000000 0.000000
    67 0.000000 0.000000 0.000000 -1.570796 0.000000 0.000000
    68 0.000000 0.000000 0.000000 1.570796 0.000000 0.000000
    69 0.000000 0.000000 0.000000 1.570796 0.000000 0.000000
    70 0.000000 0.000000 0.000000 1.570796 0.000000 0.000000
    71 0.000000 0.000000 0.000001 1.570796 0.000000 0.000000
    72 0.000000 0.000000 0.000000 1.570796 0.000000 0.000000
    73 0.000000 0.000000 0.000000 1.570796 0.000000 0.000000
    74 0.000000 0.000000 0.000000 1.570796 0.000000 0.000000
    75 0.000000 0.000000 0.000000 1.570796 0.000000 0.000000
    76 -0.000001 0.000000 0.000000 1.570796 0.000000 0.000000
    77 0.000000 0.000000 0.000000 1.570796 0.000000 0.000000
    78 0.000000 0.000000 0.000000 1.570796 0.000000 0.000000
    79 0.000000 0.000000 0.000000 1.570796 0.000000 0.000000
  time 6
    0 -3.494435 -6.876072 -4.104710 -0.815784 -0.221647 0.271824
    1 7.195313 4.312500 -6.410156 -0.275968 0.424923 -1.104175
    2 0.000000 0.000000 0.000000 2.586155 0.281645 -0.133585
    3 10.859747 -0.000001 -0.000001 0.270635 0.009251 1.495705
    4 11.118949 -0.012917 -0.055607 0.532192 0.111662 -0.277270
    5 4.462505 0.096129 -1.190233 1.739333 0.120053 0.008192
    6 1.533205 -0.000001 -0.000001 0.000401 -0.024080 0.007484
    7 0.922225 0.000000 0.000000 -0.000253 -0.106578 0.001702
    8 4.581339 -0.202365 -0.322599 1.512915 0.012430 0.075357
    9 1.706794 -0.000006 0.000000 0.014491 -0.038417 0.002296
    10 0.995784 0.000001 0.000000 0.026214 -0.227377 -0.019970
    11 4.329579 -0.047878 0.601895 1.349516 -0.077527 0.095881
    12 1.571783 0.000002 0.000005 0.024930 -0.176260 0.009649
    13 1.038471 0.000006 0.000000 0.005549 -0.061125 0.013903
    14 3.871905 0.337152 1.438553 1.393841 -0.149371 -0.009210
    15 1.197247 -0.000007 -0.000013 0.068409 0.045438 0.042375
    16 0.862615 0.000000 0.000000 -0.008440 -0.138906 -0.000871
    17 1.188218 1.062015 -1.188354 3.061384 0.567106 0.123733
    18 1.984254 -0.000001 0.000000 -0.029649 0.441250 -0.102470
    19 1.217773 0.000004 0.000002 -0.020700 -0.169366 0.027834
    20 9.582013 0.082096 -0.005725 1.606860 -0.254413 1.498661
    21 -1.511719 11.007813 -4.187500 1.244308 0.425693 -2.037295
    22 0.000000 0.000000 0.000000 2.801104 -0.125197 -0.396244
    23 10.859730 0.000013 -0.000005 -0.271324 0.009270 -1.542531
    24 11.118959 0.012915 -0.055609 -0.366606 0.006919 0.101189
    25 4.462496 -0.096127 -1.190239 -1.683470 0.065975 -0.394892
    26 1.533207 0.000003 0.000000 -0.001689 0.058288 -0.007557
    27 0.922219 0.000000 0.000000 -0.000168 0.345789 -0.001706
    28 3.871094 -0.338867 1.439453 -1.480019 0.189903 -1.416936
    29 1.197266 0.000004 -0.000017 -0.127146 1.001777 -0.146524
    30 0.866211 -0.000001 -0.000003 0.009351 0.733784 0.001142
    31 4.582031 0.205322 -0.326172 -1.539698 0.007204 -1.420212
    32 1.709961 0.000006 -0.000002 -0.026879 1.095842 -0.020771
    33 0.998047 -0.000001 0.000001 -0.016608 0.557664 0.006715
    34 4.332031 0.048065 0.604980 -1.502394 0.106974 -1.508525
    35 1.571289 0.000006 -0.000001 -0.060351 1.044535 -0.069431
    36 1.039063 -0.000008 0.000001 -0.009609 0.637010 -0.018240
    37 1.191406 -1.062500 -1.191406 2.688815 0.147029 -0.438545
    38 1.987305 0.000004 0.000002 0.027278 0.315271 0.098085
    39 1.217773 -0.000005 0.000003 0.021152 0.266873 -0.018769
    40 9.578125 -0.084412 -0.006874 -1.606853 -0.254477 -1.498648
    41 -0.871094 11.210938 -11.585938 0.000000 0.000000 -0.000001
    42 -3.483848 -8.845819 -1.860673 -0.815784 -0.221647 0.271824
    43 -3.198550 -16.434957 5.980505 -0.815784 -0.221647 0.271824
    44 0.000000 0.000000 0.000000 0.000000 0.000000 0.000000
    45 0.000000 0.000000 0.000000 0.000000 0.000000 0.000000
    46 0.000000 0.000000 0.000000 0.000000 0.000000 0.000000
    47 0.000000 0.000000 0.000000 -1.570796 0.000000 0.000000
    48 0.000000 0.000000 0.000000 -1.570796 0.000000 0.000000
    49 0.000000 0.000000 0.000000 -1.570796 0.000000 0.000000
    50 0.000000 0.000000 0.000000 1.570796 0.000000 0.000000
    51 0.000000 0.000000 0.000000 1.570796 0.000000 0.000000
    52 0.000000 0.000000 0.000000 1.570796 0.000000 0.000000
    53 0.000000 0.000000 0.000000 1.570796 0.000000 0.000000
    54 0.000000 0.000000 0.000000 1.570796 0.000000 0.000000
    55 0.000000 0.000000 0.000000 1.570796 0.000000 0.000000
    56 0.000000 0.000000 0.000000 1.570796 0.000000 0.000000
    57 0.000000 0.000000 0.000000 1.570796 0.000000 0.000000
    58 0.000000 0.000000 0.000000 1.570796 0.000000 0.000000
    59 0.000000 0.000000 0.000000 1.570796 0.000000 0.000000
    60 0.000000 0.000000 0.000000 1.570796 0.000000 0.000000
    61 0.000000 0.000000 0.000000 1.570796 0.000000 0.000000
    62 0.000000 0.000001 0.000000 0.000000 0.000000 0.000000
    63 0.000000 0.000000 0.000000 0.000000 0.000000 0.000000
    64 0.000000 0.000000 0.000000 -3.141593 0.000000 0.000000
    65 0.000000 0.000000 0.000000 -1.570796 0.000000 0.000000
    66 0.000000 0.000000 0.000000 -1.570796 0.000000 0.000000
    67 0.000000 0.000000 0.000000 -1.570796 0.000000 0.000000
    68 0.000000 0.000000 0.000000 1.570796 0.000000 0.000000
    69 0.000000 0.000000 0.000000 1.570796 0.000000 0.000000
    70 0.000000 0.000000 0.000000 1.570796 0.000000 0.000000
    71 0.000000 0.000000 0.000001 1.570796 0.000000 0.000000
    72 0.000000 0.000000 0.000000 1.570796 0.000000 0.000000
    73 0.000000 0.000000 0.000000 1.570796 0.000000 0.000000
    74 0.000000 0.000000 0.000000 1.570796 0.000000 0.000000
    75 0.000000 0.000000 0.000000 1.570796 0.000000 0.000000
    76 -0.000001 0.000000 0.000000 1.570796 0.000000 0.000000
    77 0.000000 0.000000 0.000000 1.570796 0.000000 0.000000
    78 0.000000 0.000000 0.000000 1.570796 0.000000 0.000000
    79 0.000000 0.000000 0.000000 1.570796 0.000000 0.000000
  time 7
    0 -3.783507 -7.391712 -3.987519 -0.988199 -0.250506 0.401562
    1 7.195313 4.312500 -6.410156 -0.275968 0.424923 -1.104175
    2 0.000000 0.000000 0.000000 2.610791 0.253132 -0.026111
    3 10.859747 -0.000001 -0.000001 0.270934 0.009275 1.517237
    4 11.118949 -0.012917 -0.055607 0.695853 0.130510 -0.086640
    5 4.462505 0.096129 -1.190233 1.739333 0.120053 0.008192
    6 1.533205 -0.000001 -0.000001 0.000892 0.043796 0.007484
    7 0.922225 0.000000 0.000000 -0.000145 -0.038688 0.001690
    8 4.581339 -0.202365 -0.322599 1.514892 0.018950 0.120553
    9 1.706794 -0.000006 0.000000 0.014399 0.052069 0.003687
    10 0.995784 0.000001 0.000000 0.024500 -0.020489 -0.014145
    11 4.329579 -0.047878 0.601895 1.346963 -0.062726 0.140089
    12 1.571783 0.000002 0.000005 0.023959 -0.040527 0.012621
    13 1.038471 0.000006 0.000000 0.005465 0.186374 0.014598
    14 3.871905 0.337152 1.438553 1.387885 -0.140861 0.035686
    15 1.197247 -0.000007 -0.000013 0.068334 0.113196 0.046707
    16 0.862615 0.000000 0.000000 -0.008632 0.080378 -0.000859
    17 1.188218 1.062015 -1.188354 3.061384 0.567106 0.123745
    18 1.984254 -0.000001 0.000000 -0.030296 0.510893 -0.104544
    19 1.217773 0.000004 0.000002 -0.020700 -0.169366 0.027834
    20 9.582013 0.082096 -0.005725 1.608838 -0.456642 1.493112
    21 -1.511719 11.007813 -4.187500 1.244308 0.425693 -2.037295
    22 0.000000 0.000000 0.000000 2.802854 -0.092297 -0.339520
    23 10.859730 0.000013 -0.000005 -0.269131 0.009055 -1.391668
    24 11.118959 0.012915 -0.055609 -0.297554 0.121134 -0.122855
    25 4.462496 -0.096127 -1.190239 -1.681026 0.069738 -0.360772
    26 1.533207 0.000003 0.000000 -0.001689 0.032617 -0.007557
    27 0.922219 0.000000 0.000000 -0.000168 0.277316 -0.001706
    28 3.871094 -0.338867 1.439453 -1.480019 0.189903 -1.416936
    29 1.197266 0.000004 -0.000017 -0.127146 1.001777 -0.146524
    30 0.866211 -0.000001 -0.000003 0.009351 0.733784 0.001142
    31 4.582031 0.205322 -0.326172 -1.539698 0.007204 -1.420212
    32 1.709961 0.000006 -0.000002 -0.026879 1.095842 -0.020771
    33 0.998047 -0.000001 0.000001 -0.016608 0.557664 0.006715
    34 4.332031 0.048065 0.604980 -1.502394 0.106974 -1.508525
    35 1.571289 0.000006 -0.000001 -0.060351 1.044535 -0.069431
    36 1.039063 -0.000008 0.000001 -0.009609 0.637010 -0.018240
    37 1.191406 -1.062500 -1.191406 2.688815 0.147029 -0.438545
    38 1.987305 0.000004 0.000002 0.027278 0.315271 0.098085
    39 1.217773 -0.000005 0.000003 0.021152 0.266873 -0.018769
    40 9.578125 -0.084412 -0.006874 -1.606853 -0.254477 -1.498648
    41 -0.871094 11.210938 -11.585938 0.000000 0.000000 -0.000001
    42 -3.808077 -9.009887 -1.473943 -0.988199 -0.250506 0.401562
    43 -3.597000 -15.329455 7.421955 -0.988199 -0.250506 0.401562
    44 0.000000 0.000000 0.000000 0.000000 0.000000 0.000000
    45 0.000000 0.000000 0.000000 0.000000 0.000000 0.000000
    46 0.000000 0.000000 0.000000 0.000000 0.000000 0.000000
    47 0.000000 0.000000 0.000000 -1.570796 0.000000 0.000000
    48 0.000000 0.000000 0.000000 -1.570796 0.000000 0.000000
    49 0.000000 0.000000 0.000000 -1.570796 0.000000 0.000000
    50 0.000000 0.000000 0.000000 1.570796 0.000000 0.000000
    51 0.000000 0.000000 0.000000 1.570796 0.000000 0.000000
    52 0.000000 0.000000 0.000000 1.570796 0.000000 0.000000
    53 0.000000 0.000000 0.000000 1.570796 0.000000 0.000000
    54 0.000000 0.000000 0.000000 1.570796 0.000000 0.000000
    55 0.000000 0.000000 0.000000 1.570796 0.000000 0.000000
    56 0.000000 0.000000 0.000000 1.570796 0.000000 0.000000
    57 0.000000 0.000000 0.000000 1.570796 0.000000 0.000000
    58 0.000000 0.000000 0.000000 1.570796 0.000000 0.000000
    59 0.000000 0.000000 0.000000 1.570796 0.000000 0.000000
    60 0.000000 0.000000 0.000000 1.570796 0.000000 0.000000
    61 0.000000 0.000000 0.000000 1.570796 0.000000 0.000000
    62 0.000000 0.000001 0.000000 0.000000 0.000000 0.000000
    63 0.000000 0.000000 0.000000 0.000000 0.000000 0.000000
    64 0.000000 0.000000 0.000000 -3.141593 0.000000 0.000000
    65 0.000000 0.000000 0.000000 -1.570796 0.000000 0.000000
    66 0.000000 0.000000 0.000000 -1.570796 0.000000 0.000000
    67 0.000000 0.000000 0.000000 -1.570796 0.000000 0.000000
    68 0.000000 0.000000 0.000000 1.570796 0.000000 0.000000
    69 0.000000 0.000000 0.000000 1.570796 0.000000 0.000000
    70 0.000000 0.000000 0.000000 1.570796 0.000000 0.000000
    71 0.000000 0.000000 0.000001 1.570796 0.000000 0.000000
    72 0.000000 0.000000 0.000000 1.570796 0.000000 0.000000
    73 0.000000 0.000000 0.000000 1.570796 0.000000 0.000000
    74 0.000000 0.000000 0.000000 1.570796 0.000000 0.000000
    75 0.000000 0.000000 0.000000 1.570796 0.000000 0.000000
    76 -0.000001 0.000000 0.000000 1.570796 0.000000 0.000000
    77 0.000000 0.000000 0.000000 1.570796 0.000000 0.000000
    78 0.000000 0.000000 0.000000 1.570796 0.000000 0.000000
    79 0.000000 0.000000 0.000000 1.570796 0.000000 0.000000
  time 8
    0 -4.068671 -7.669065 -3.768762 -1.130231 -0.271999 0.556911
    1 7.195313 4.312500 -6.410156 -0.275968 0.424923 -1.104175
    2 0.000000 0.000000 0.000000 2.623472 0.220155 0.084470
    3 10.859747 -0.000001 -0.000001 0.271618 0.009287 1.563472
    4 11.118949 -0.012917 -0.055607 0.848980 0.022514 0.113400
    5 4.462505 0.096129 -1.190233 1.739333 0.120053 0.008192
    6 1.533205 -0.000001 -0.000001 0.001863 0.169866 0.007592
    7 0.922225 0.000000 0.000000 0.000070 0.087363 0.001702
    8 4.581339 -0.202365 -0.322599 1.515767 0.021706 0.204479
    9 1.706794 -0.000006 0.000000 0.014676 0.220094 0.006098
    10 0.995784 0.000001 0.000000 0.025783 0.302544 -0.005744
    11 4.329579 -0.047878 0.601895 1.342205 -0.046163 0.222134
    12 1.571783 0.000002 0.000005 0.024415 0.211499 0.018829
    13 1.038471 0.000006 0.000000 0.005992 0.489192 0.016575
    14 3.871905 0.337152 1.438553 1.376811 -0.125085 0.118971
    15 1.197247 -0.000007 -0.000013 0.069865 0.238930 0.055585
    16 0.862615 0.000000 0.000000 -0.008872 0.344031 -0.000919
    17 1.188218 1.062015 -1.188354 3.061384 0.567106 0.123745
    18 1.984254 -0.000001 0.000000 -0.030764 0.559005 -0.105970
    19 1.217773 0.000004 0.000002 -0.020700 -0.169366 0.027834
    20 9.582013 0.082096 -0.005725 1.614530 -0.675288 1.481715
    21 -1.511719 11.007813 -4.187500 1.244308 0.425693 -2.037295
    22 0.000000 0.000000 0.000000 2.803501 -0.074293 -0.282337
    23 10.859730 0.000013 -0.000005 -0.267381 0.008611 -1.268793
    24 11.118959 0.012915 -0.055609 -0.206627 0.198780 -0.313082
    25 4.462496 -0.096127 -1.190239 -1.678509 0.073561 -0.326053
    26 1.533207 0.000003 0.000000 -0.001689 0.006466 -0.007557
    27 0.922219 0.000000 0.000000 -0.000168 0.207628 -0.001706
    28 3.871094 -0.338867 1.439453 -1.480019 0.189903 -1.416936
    29 1.197266 0.000004 -0.000017 -0.127146 1.001777 -0.146524
    30 0.866211 -0.000001 -0.000003 0.009351 0.733784 0.001142
    31 4.582031 0.205322 -0.326172 -1.539698 0.007204 -1.420212
    32 1.709961 0.000006 -0.000002 -0.026879 1.095842 -0.020771
    33 0.998047 -0.000001 0.000001 -0.016608 0.557664 0.006715
    34 4.332031 0.048065 0.604980 -1.502394 0.106974 -1.508525
    35 1.571289 0.000006 -0.000001 -0.060351 1.044535 -0.069431
    36 1.039063 -0.000008 0.000001 -0.009609 0.637010 -0.018240
    37 1.191406 -1.062500 -1.191406 2.688815 0.147029 -0.438545
    38 1.987305 0.000004 0.000002 0.027278 0.315271 0.098085
    39 1.217773 -0.000005 0.000003 0.021152 0.266873 -0.018769
    40 9.578125 -0.084412 -0.006874 -1.606853 -0.254477 -1.498648
    41 -0.871094 11.210938 -11.585938 0.000000 0.000000 -0.000001
    42 -4.136212 -8.994261 -1.095025 -1.130231 -0.271999 0.556911
    43 -3.999356 -14.259109 8.464955 -1.130231 -0.271999 0.556911
    44 0.000000 0.000000 0.000000 0.000000 0.000000 0.000000
    45 0.000000 0.000000 0.000000 0.000000 0.000000 0.000000
    46 0.000000 0.000000 0.000000 0.000000 0.000000 0.000000
    47 0.000000 0.000000 0.000000 -1.570796 0.000000 0.000000
    48 0.000000 0.000000 0.000000 -1.570796 0.000000 0.000000
    49 0.000000 0.000000 0.000000 -1.570796 0.000000 0.000000
    50 0.000000 0.000000 0.000000 1.570796 0.000000 0.000000
    51 0.000000 0.000000 0.000000 1.570796 0.000000 0.000000
    52 0.000000 0.000000 0.000000 1.570796 0.000000 0.000000
    53 0.000000 0.000000 0.000000 1.570796 0.000000 0.000000
    54 0.000000 0.000000 0.000000 1.570796 0.000000 0.000000
    55 0.000000 0.000000 0.000000 1.570796 0.000000 0.000000
    56 0.000000 0.000000 0.000000 1.570796 0.000000 0.000000
    57 0.000000 0.000000 0.000000 1.570796 0.000000 0.000000
    58 0.000000 0.000000 0.000000 1.570796 0.000000 0.000000
    59 0.000000 0.000000 0.000000 1.570796 0.000000 0.000000
    60 0.000000 0.000000 0.000000 1.570796 0.000000 0.000000
    61 0.000000 0.000000 0.000000 1.570796 0.000000 0.000000
    62 0.000000 0.000001 0.000000 0.000000 0.000000 0.000000
    63 0.000000 0.000000 0.000000 0.000000 0.000000 0.000000
    64 0.000000 0.000000 0.000000 -3.141593 0.000000 0.000000
    65 0.000000 0.000000 0.000000 -1.570796 0.000000 0.000000
    66 0.000000 0.000000 0.000000 -1.570796 0.000000 0.000000
    67 0.000000 0.000000 0.000000 -1.570796 0.000000 0.000000
    68 0.000000 0.000000 0.000000 1.570796 0.000000 0.000000
    69 0.000000 0.000000 0.000000 1.570796 0.000000 0.000000
    70 0.000000 0.000000 0.000000 1.570796 0.000000 0.000000
    71 0.000000 0.000000 0.000001 1.570796 0.000000 0.000000
    72 0.000000 0.000000 0.000000 1.570796 0.000000 0.000000
    73 0.000000 0.000000 0.000000 1.570796 0.000000 0.000000
    74 0.000000 0.000000 0.000000 1.570796 0.000000 0.000000
    75 0.000000 0.000000 0.000000 1.570796 0.000000 0.000000
    76 -0.000001 0.000000 0.000000 1.570796 0.000000 0.000000
    77 0.000000 0.000000 0.000000 1.570796 0.000000 0.000000
    78 0.000000 0.000000 0.000000 1.570796 0.000000 0.000000
    79 0.000000 0.000000 0.000000 1.570796 0.000000 0.000000
  time 9
    0 -4.338211 -7.864383 -3.651571 -1.225677 -0.286049 0.679404
    1 7.195313 4.312500 -6.410156 -0.275968 0.424923 -1.104175
    2 0.000000 0.000000 0.000000 2.658465 0.185210 0.213908
    3 10.859747 -0.000001 -0.000001 0.272361 0.009275 1.614337
    4 11.118949 -0.012917 -0.055607 0.887723 -0.138597 0.318578
    5 4.462505 0.096129 -1.190233 1.739333 0.120053 0.008192
    6 1.533205 -0.000001 -0.000001 0.002378 0.237710 0.007712
    7 0.922225 0.000000 0.000000 0.000178 0.155218 0.001714
    8 4.581339 -0.202365 -0.322599 1.515947 0.022305 0.249658
    9 1.706794 -0.000006 0.000000 0.015137 0.310580 0.007581
    10 0.995784 0.000001 0.000000 0.028623 0.470498 -0.001082
    11 4.329579 -0.047878 0.601895 1.339628 -0.038301 0.266280
    12 1.571783 0.000002 0.000005 0.026105 0.347182 0.022892
    13 1.038471 0.000006 0.000000 0.006855 0.636934 0.018325
    14 3.871905 0.337152 1.438553 1.370843 -0.116588 0.163758
    15 1.197247 -0.000007 -0.000013 0.071682 0.306610 0.060926
    16 0.862615 0.000000 0.000000 -0.009004 0.471916 -0.000955
    17 1.188218 1.062015 -1.188354 3.061384 0.567106 0.123745
    18 1.984254 -0.000001 0.000000 -0.030931 0.576927 -0.106485
    19 1.217773 0.000004 0.000002 -0.020700 -0.169366 0.027834
    20 9.582013 0.082096 -0.005725 1.619755 -0.777623 1.473374
    21 -1.511719 11.007813 -4.187500 1.244308 0.425693 -2.037295
    22 0.000000 0.000000 0.000000 2.803813 -0.061550 -0.238245
    23 10.859730 0.000013 -0.000005 -0.266111 0.008168 -1.175455
    24 11.118959 0.012915 -0.055609 -0.132283 0.251307 -0.444554
    25 4.462496 -0.096127 -1.190239 -1.676028 0.077324 -0.291933
    26 1.533207 0.000003 0.000000 -0.001689 -0.019217 -0.007557
    27 0.922219 0.000000 0.000000 -0.000168 0.139155 -0.001706
    28 3.871094 -0.338867 1.439453 -1.480019 0.189903 -1.416936
    29 1.197266 0.000004 -0.000017 -0.127146 1.001777 -0.146524
    30 0.866211 -0.000001 -0.000003 0.009351 0.733784 0.001142
    31 4.582031 0.205322 -0.326172 -1.539698 0.007204 -1.420212
    32 1.709961 0.000006 -0.000002 -0.026879 1.095842 -0.020771
    33 0.998047 -0.000001 0.000001 -0.016608 0.557664 0.006715
    34 4.332031 0.048065 0.604980 -1.502394 0.106974 -1.508525
    35 1.571289 0.000006 -0.000001 -0.060351 1.044535 -0.069431
    36 1.039063 -0.000008 0.000001 -0.009609 0.637010 -0.018240
    37 1.191406 -1.062500 -1.191406 2.688815 0.147029 -0.438545
    38 1.987305 0.000004 0.000002 0.027278 0.315271 0.098085
    39 1.217773 -0.000005 0.000003 0.021152 0.266873 -0.018769
    40 9.578125 -0.084412 -0.006874 -1.606853 -0.254477 -1.498648
    41 -0.871094 11.210938 -11.585938 0.000000 0.000000 -0.000001
    42 -4.460440 -9.017699 -0.903613 -1.225677 -0.286049 0.679404
    43 -4.472026 -13.626278 8.988409 -1.225677 -0.286049 0.679404
    44 0.000000 0.000000 0.000000 0.000000 0.000000 0.000000
    45 0.000000 0.000000 0.000000 0.000000 0.000000 0.000000
    46 0.000000 0.000000 0.000000 0.000000 0.000000 0.000000
    47 0.000000 0.000000 0.000000 -1.570796 0.000000 0.000000
    48 0.000000 0.000000 0.000000 -1.570796 0.000000 0.000000
    49 0.000000 0.000000 0.000000 -1.570796 0.000000 0.000000
    50 0.000000 0.000000 0.000000 1.570796 0.000000 0.000000
    51 0.000000 0.000000 0.000000 1.570796 0.000000 0.000000
    52 0.000000 0.000000 0.000000 1.570796 0.000000 0.000000
    53 0.000000 0.000000 0.000000 1.570796 0.000000 0.000000
    54 0.000000 0.000000 0.000000 1.570796 0.000000 0.000000
    55 0.000000 0.000000 0.000000 1.570796 0.000000 0.000000
    56 0.000000 0.000000 0.000000 1.570796 0.000000 0.000000
    57 0.000000 0.000000 0.000000 1.570796 0.000000 0.000000
    58 0.000000 0.000000 0.000000 1.570796 0.000000 0.000000
    59 0.000000 0.000000 0.000000 1.570796 0.000000 0.000000
    60 0.000000 0.000000 0.000000 1.570796 0.000000 0.000000
    61 0.000000 0.000000 0.000000 1.570796 0.000000 0.000000
    62 0.000000 0.000001 0.000000 0.000000 0.000000 0.000000
    63 0.000000 0.000000 0.000000 0.000000 0.000000 0.000000
    64 0.000000 0.000000 0.000000 -3.141593 0.000000 0.000000
    65 0.000000 0.000000 0.000000 -1.570796 0.000000 0.000000
    66 0.000000 0.000000 0.000000 -1.570796 0.000000 0.000000
    67 0.000000 0.000000 0.000000 -1.570796 0.000000 0.000000
    68 0.000000 0.000000 0.000000 1.570796 0.000000 0.000000
    69 0.000000 0.000000 0.000000 1.570796 0.000000 0.000000
    70 0.000000 0.000000 0.000000 1.570796 0.000000 0.000000
    71 0.000000 0.000000 0.000001 1.570796 0.000000 0.000000
    72 0.000000 0.000000 0.000000 1.570796 0.000000 0.000000
    73 0.000000 0.000000 0.000000 1.570796 0.000000 0.000000
    74 0.000000 0.000000 0.000000 1.570796 0.000000 0.000000
    75 0.000000 0.000000 0.000000 1.570796 0.000000 0.000000
    76 -0.000001 0.000000 0.000000 1.570796 0.000000 0.000000
    77 0.000000 0.000000 0.000000 1.570796 0.000000 0.000000
    78 0.000000 0.000000 0.000000 1.570796 0.000000 0.000000
    79 0.000000 0.000000 0.000000 1.570796 0.000000 0.000000
  time 10
    0 -4.611657 -8.075327 -3.741418 -1.286343 -0.295390 0.767188
    1 7.195313 4.312500 -6.410156 -0.275968 0.424923 -1.104175
    2 0.000000 0.000000 0.000000 2.733146 0.132694 0.370759
    3 10.859747 -0.000001 -0.000001 0.272828 0.009251 1.646207
    4 11.118949 -0.012917 -0.055607 0.821663 -0.229355 0.551642
    5 4.462505 0.096129 -1.190233 1.739333 0.120053 0.008192
    6 1.533205 -0.000001 -0.000001 0.002378 0.237742 0.007712
    7 0.922225 0.000000 0.000000 0.000178 0.155218 0.001714
    8 4.581339 -0.202365 -0.322599 1.515947 0.022305 0.249658
    9 1.706794 -0.000006 0.000000 0.015137 0.310580 0.007581
    10 0.995784 0.000001 0.000000 0.028623 0.470533 -0.001082
    11 4.329579 -0.047878 0.601895 1.339628 -0.038301 0.266280
    12 1.571783 0.000002 0.000005 0.026105 0.347182 0.022892
    13 1.038471 0.000006 0.000000 0.006855 0.636934 0.018325
    14 3.871905 0.337152 1.438553 1.370843 -0.116588 0.163758
    15 1.197247 -0.000007 -0.000013 0.071682 0.306610 0.060926
    16 0.862615 0.000000 0.000000 -0.009004 0.471916 -0.000955
    17 1.188218 1.062015 -1.188354 3.061384 0.567106 0.123745
    18 1.984254 -0.000001 0.000000 -0.030931 0.576927 -0.106485
    19 1.217773 0.000004 0.000002 -0.020700 -0.169366 0.027834
    20 9.582013 0.082096 -0.005725 1.619755 -0.777623 1.473374
    21 -1.511719 11.007813 -4.187500 1.244308 0.425693 -2.037295
    22 0.000000 0.000000 0.000000 2.810896 -0.046237 -0.206804
    23 10.859730 0.000013 -0.000005 -0.264972 0.007629 -1.090544
    24 11.118959 0.012915 -0.055609 -0.085509 0.281154 -0.549799
    25 4.462496 -0.096127 -1.190239 -1.673703 0.080859 -0.259658
    26 1.533207 0.000003 0.000000 -0.001689 -0.043498 -0.007557
    27 0.922219 0.000000 0.000000 -0.000168 0.074410 -0.001706
    28 3.871094 -0.338867 1.439453 -1.480019 0.189903 -1.416936
    29 1.197266 0.000004 -0.000017 -0.127146 1.001777 -0.146524
    30 0.866211 -0.000001 -0.000003 0.009351 0.733784 0.001142
    31 4.582031 0.205322 -0.326172 -1.539698 0.007204 -1.420212
    32 1.709961 0.000006 -0.000002 -0.026879 1.095842 -0.020771
    33 0.998047 -0.000001 0.000001 -0.016608 0.557664 0.006715
    34 4.332031 0.048065 0.604980 -1.502394 0.106974 -1.508525
    35 1.571289 0.000006 -0.000001 -0.060351 1.044535 -0.069431
    36 1.039063 -0.000008 0.000001 -0.009609 0.637010 -0.018240
    37 1.191406 -1.062500 -1.191406 2.688815 0.147029 -0.438545
    38 1.987305 0.000004 0.000002 0.027278 0.315271 0.098085
    39 1.217773 -0.000005 0.000003 0.021152 0.266873 -0.018769
    40 9.578125 -0.084412 -0.006874 -1.606853 -0.254477 -1.498648
    41 -0.871094 11.210938 -11.585938 0.000000 0.000000 -0.000001
    42 -4.780763 -9.142703 -0.958302 -1.286343 -0.295390 0.767188
    43 -4.940791 -13.376270 9.097787 -1.286343 -0.295390 0.767188
    44 0.000000 0.000000 0.000000 0.000000 0.000000 0.000000
    45 0.000000 0.000000 0.000000 0.000000 0.000000 0.000000
    46 0.000000 0.000000 0.000000 0.000000 0.000000 0.000000
    47 0.000000 0.000000 0.000000 -1.570796 0.000000 0.000000
    48 0.000000 0.000000 0.000000 -1.570796 0.000000 0.000000
    49 0.000000 0.000000 0.000000 -1.570796 0.000000 0.000000
    50 0.000000 0.000000 0.000000 1.570796 0.000000 0.000000
    51 0.000000 0.000000 0.000000 1.570796 0.000000 0.000000
    52 0.000000 0.000000 0.000000 1.570796 0.000000 0.000000
    53 0.000000 0.000000 0.000000 1.570796 0.000000 0.000000
    54 0.000000 0.000000 0.000000 1.570796 0.000000 0.000000
    55 0.000000 0.000000 0.000000 1.570796 0.000000 0.000000
    56 0.000000 0.000000 0.000000 1.570796 0.000000 0.000000
    57 0.000000 0.000000 0.000000 1.570796 0.000000 0.000000
    58 0.000000 0.000000 0.000000 1.570796 0.000000 0.000000
    59 0.000000 0.000000 0.000000 1.570796 0.000000 0.000000
    60 0.000000 0.000000 0.000000 1.570796 0.000000 0.000000
    61 0.000000 0.000000 0.000000 1.570796 0.000000 0.000000
    62 0.000000 0.000001 0.000000 0.000000 0.000000 0.000000
    63 0.000000 0.000000 0.000000 0.000000 0.000000 0.000000
    64 0.000000 0.000000 0.000000 -3.141593 0.000000 0.000000
    65 0.000000 0.000000 0.000000 -1.570796 0.000000 0.000000
    66 0.000000 0.000000 0.000000 -1.570796 0.000000 0.000000
    67 0.000000 0.000000 0.000000 -1.570796 0.000000 0.000000
    68 0.000000 0.000000 0.000000 1.570796 0.000000 0.000000
    69 0.000000 0.000000 0.000000 1.570796 0.000000 0.000000
    70 0.000000 0.000000 0.000000 1.570796 0.000000 0.000000
    71 0.000000 0.000000 0.000001 1.570796 0.000000 0.000000
    72 0.000000 0.000000 0.000000 1.570796 0.000000 0.000000
    73 0.000000 0.000000 0.000000 1.570796 0.000000 0.000000
    74 0.000000 0.000000 0.000000 1.570796 0.000000 0.000000
    75 0.000000 0.000000 0.000000 1.570796 0.000000 0.000000
    76 -0.000001 0.000000 0.000000 1.570796 0.000000 0.000000
    77 0.000000 0.000000 0.000000 1.570796 0.000000 0.000000
    78 0.000000 0.000000 0.000000 1.570796 0.000000 0.000000
    79 0.000000 0.000000 0.000000 1.570796 0.000000 0.000000
  time 11
    0 -4.924166 -8.286271 -3.967987 -1.334906 -0.302795 0.853203
    1 7.195313 4.312500 -6.410156 -0.275968 0.424923 -1.104175
    2 0.000000 0.000000 0.000000 2.827333 0.070342 0.539873
    3 10.859747 -0.000001 -0.000001 0.273487 0.009179 1.692378
    4 11.118949 -0.012917 -0.055607 0.764888 -0.225960 0.722397
    5 4.462505 0.096129 -1.190233 1.739333 0.120053 0.008192
    6 1.533205 -0.000001 -0.000001 0.002378 0.237710 0.007700
    7 0.922225 0.000000 0.000000 0.000178 0.155218 0.001714
    8 4.581339 -0.202365 -0.322599 1.515947 0.022305 0.249658
    9 1.706794 -0.000006 0.000000 0.015137 0.310580 0.007581
    10 0.995784 0.000001 0.000000 0.028623 0.470533 -0.001082
    11 4.329579 -0.047878 0.601895 1.339628 -0.038289 0.266280
    12 1.571783 0.000002 0.000005 0.026105 0.347182 0.022892
    13 1.038471 0.000006 0.000000 0.006843 0.636934 0.018325
    14 3.871905 0.337152 1.438553 1.370843 -0.116575 0.163758
    15 1.197247 -0.000007 -0.000013 0.071682 0.306610 0.060926
    16 0.862615 0.000000 0.000000 -0.009004 0.471916 -0.000955
    17 1.188218 1.062015 -1.188354 3.061384 0.567106 0.123745
    18 1.984254 -0.000001 0.000000 -0.030931 0.576959 -0.106485
    19 1.217773 0.000004 0.000002 -0.020700 -0.169366 0.027834
    20 9.582013 0.082096 -0.005725 1.619755 -0.777623 1.473374
    21 -1.511719 11.007813 -4.187500 1.244308 0.425693 -2.037295
    22 0.000000 0.000000 0.000000 2.823324 -0.029067 -0.179488
    23 10.859730 0.000013 -0.000005 -0.263858 0.006993 -1.001333
    24 11.118959 0.012915 -0.055609 -0.044582 0.297223 -0.658839
    25 4.462496 -0.096127 -1.190239 -1.671594 0.084083 -0.230500
    26 1.533207 0.000003 0.000000 -0.001689 -0.065429 -0.007557
    27 0.922219 0.000000 0.000000 -0.000168 0.015865 -0.001706
    28 3.871094 -0.338867 1.439453 -1.480019 0.189903 -1.416936
    29 1.197266 0.000004 -0.000017 -0.127146 1.001777 -0.146524
    30 0.866211 -0.000001 -0.000003 0.009351 0.733784 0.001142
    31 4.582031 0.205322 -0.326172 -1.539698 0.007204 -1.420212
    32 1.709961 0.000006 -0.000002 -0.026879 1.095842 -0.020771
    33 0.998047 -0.000001 0.000001 -0.016608 0.557664 0.006715
    34 4.332031 0.048065 0.604980 -1.502394 0.106974 -1.508525
    35 1.571289 0.000006 -0.000001 -0.060351 1.044535 -0.069431
    36 1.039063 -0.000008 0.000001 -0.009609 0.637010 -0.018240
    37 1.191406 -1.062500 -1.191406 2.688815 0.147029 -0.438545
    38 1.987305 0.000004 0.000002 0.027278 0.315271 0.098085
    39 1.217773 -0.000005 0.000003 0.021152 0.266873 -0.018769
    40 9.578125 -0.084412 -0.006874 -1.606853 -0.254477 -1.498648
    41 -0.871094 11.210938 -11.585938 0.000000 0.000000 -0.000001
    42 -5.124523 -9.287239 -1.161433 -1.334906 -0.302795 0.853203
    43 -5.386117 -13.270798 8.996222 -1.334906 -0.302795 0.853203
    44 0.000000 0.000000 0.000000 0.000000 0.000000 0.000000
    45 0.000000 0.000000 0.000000 0.000000 0.000000 0.000000
    46 0.000000 0.000000 0.000000 0.000000 0.000000 0.000000
    47 0.000000 0.000000 0.000000 -1.570796 0.000000 0.000000
    48 0.000000 0.000000 0.000000 -1.570796 0.000000 0.000000
    49 0.000000 0.000000 0.000000 -1.570796 0.000000 0.000000
    50 0.000000 0.000000 0.000000 1.570796 0.000000 0.000000
    51 0.000000 0.000000 0.000000 1.570796 0.000000 0.000000
    52 0.000000 0.000000 0.000000 1.570796 0.000000 0.000000
    53 0.000000 0.000000 0.000000 1.570796 0.000000 0.000000
    54 0.000000 0.000000 0.000000 1.570796 0.000000 0.000000
    55 0.000000 0.000000 0.000000 1.570796 0.000000 0.000000
    56 0.000000 0.000000 0.000000 1.570796 0.000000 0.000000
    57 0.000000 0.000000 0.000000 1.570796 0.000000 0.000000
    58 0.000000 0.000000 0.000000 1.570796 0.000000 0.000000
    59 0.000000 0.000000 0.000000 1.570796 0.000000 0.000000
    60 0.000000 0.000000 0.000000 1.570796 0.000000 0.000000
    61 0.000000 0.000000 0.000000 1.570796 0.000000 0.000000
    62 0.000000 0.000001 0.000000 0.000000 0.000000 0.000000
    63 0.000000 0.000000 0.000000 0.000000 0.000000 0.000000
    64 0.000000 0.000000 0.000000 -3.141593 0.000000 0.000000
    65 0.000000 0.000000 0.000000 -1.570796 0.000000 0.000000
    66 0.000000 0.000000 0.000000 -1.570796 0.000000 0.000000
    67 0.000000 0.000000 0.000000 -1.570796 0.000000 0.000000
    68 0.000000 0.000000 0.000000 1.570796 0.000000 0.000000
    69 0.000000 0.000000 0.000000 1.570796 0.000000 0.000000
    70 0.000000 0.000000 0.000000 1.570796 0.000000 0.000000
    71 0.000000 0.000000 0.000001 1.570796 0.000000 0.000000
    72 0.000000 0.000000 0.000000 1.570796 0.000000 0.000000
    73 0.000000 0.000000 0.000000 1.570796 0.000000 0.000000
    74 0.000000 0.000000 0.000000 1.570796 0.000000 0.000000
    75 0.000000 0.000000 0.000000 1.570796 0.000000 0.000000
    76 -0.000001 0.000000 0.000000 1.570796 0.000000 0.000000
    77 0.000000 0.000000 0.000000 1.570796 0.000000 0.000000
    78 0.000000 0.000000 0.000000 1.570796 0.000000 0.000000
    79 0.000000 0.000000 0.000000 1.570796 0.000000 0.000000
  time 12
    0 -5.228863 -8.473777 -4.257059 -1.371859 -0.308339 0.930793
    1 7.195313 4.312500 -6.410156 -0.275968 0.424923 -1.104175
    2 0.000000 0.000000 0.000000 2.928392 0.043619 0.683045
    3 10.859747 -0.000001 -0.000001 0.274746 0.008963 1.778569
    4 11.118949 -0.012917 -0.055607 0.807797 -0.179811 0.733582
    5 4.462505 0.096129 -1.190233 1.739333 0.120053 0.008192
    6 1.533205 -0.000001 -0.000001 0.002378 0.237742 0.007700
    7 0.922225 0.000000 0.000000 0.000178 0.155218 0.001714
    8 4.581339 -0.202365 -0.322599 1.515947 0.022305 0.249658
    9 1.706794 -0.000006 0.000000 0.015137 0.310580 0.007581
    10 0.995784 0.000001 0.000000 0.028611 0.470533 -0.001070
    11 4.329579 -0.047878 0.601895 1.339628 -0.038289 0.266280
    12 1.571783 0.000002 0.000005 0.026105 0.347182 0.022892
    13 1.038471 0.000006 0.000000 0.006843 0.636934 0.018325
    14 3.871905 0.337152 1.438553 1.370855 -0.116575 0.163758
    15 1.197247 -0.000007 -0.000013 0.071682 0.306610 0.060926
    16 0.862615 0.000000 0.000000 -0.009004 0.471916 -0.000955
    17 1.188218 1.062015 -1.188354 3.061384 0.567106 0.123745
    18 1.984254 -0.000001 0.000000 -0.030931 0.576927 -0.106485
    19 1.217773 0.000004 0.000002 -0.020700 -0.169366 0.027834
    20 9.582013 0.082096 -0.005725 1.619755 -0.777623 1.473374
    21 -1.511719 11.007813 -4.187500 1.244308 0.425693 -2.037295
    22 0.000000 0.000000 0.000000 2.838161 -0.012476 -0.154702
    23 10.859730 0.000013 -0.000005 -0.262791 0.006250 -0.913369
    24 11.118959 0.012915 -0.055609 -0.009956 0.302985 -0.762661
    25 4.462496 -0.096127 -1.190239 -1.669796 0.086828 -0.205656
    26 1.533207 0.000003 0.000000 -0.001689 -0.084125 -0.007557
    27 0.922219 0.000000 0.000000 -0.000168 -0.033988 -0.001706
    28 3.871094 -0.338867 1.439453 -1.480019 0.189903 -1.416936
    29 1.197266 0.000004 -0.000017 -0.127146 1.001777 -0.146524
    30 0.866211 -0.000001 -0.000003 0.009351 0.733784 0.001142
    31 4.582031 0.205322 -0.326172 -1.539698 0.007204 -1.420212
    32 1.709961 0.000006 -0.000002 -0.026879 1.095842 -0.020771
    33 0.998047 -0.000001 0.000001 -0.016608 0.557664 0.006715
    34 4.332031 0.048065 0.604980 -1.502394 0.106974 -1.508525
    35 1.571289 0.000006 -0.000001 -0.060351 1.044535 -0.069431
    36 1.039063 -0.000008 0.000001 -0.009609 0.637010 -0.018240
    37 1.191406 -1.062500 -1.191406 2.688815 0.147029 -0.438545
    38 1.987305 0.000004 0.000002 0.027278 0.315271 0.098085
    39 1.217773 -0.000005 0.000003 0.021152 0.266873 -0.018769
    40 9.578125 -0.084412 -0.006874 -1.606853 -0.254477 -1.498648
    41 -0.871094 11.210938 -11.585938 0.000000 0.000000 -0.000001
    42 -5.448752 -9.435681 -1.442692 -1.371859 -0.308339 0.930793
    43 -5.765035 -13.259079 8.777465 -1.371859 -0.308339 0.930793
    44 0.000000 0.000000 0.000000 0.000000 0.000000 0.000000
    45 0.000000 0.000000 0.000000 0.000000 0.000000 0.000000
    46 0.000000 0.000000 0.000000 0.000000 0.000000 0.000000
    47 0.000000 0.000000 0.000000 -1.570796 0.000000 0.000000
    48 0.000000 0.000000 0.000000 -1.570796 0.000000 0.000000
    49 0.000000 0.000000 0.000000 -1.570796 0.000000 0.000000
    50 0.000000 0.000000 0.000000 1.570796 0.000000 0.000000
    51 0.000000 0.000000 0.000000 1.570796 0.000000 0.000000
    52 0.000000 0.000000 0.000000 1.570796 0.000000 0.000000
    53 0.000000 0.000000 0.000000 1.570796 0.000000 0.000000
    54 0.000000 0.000000 0.000000 1.570796 0.000000 0.000000
    55 0.000000 0.000000 0.000000 1.570796 0.000000 0.000000
    56 0.000000 0.000000 0.000000 1.570796 0.000000 0.000000
    57 0.000000 0.000000 0.000000 1.570796 0.000000 0.000000
    58 0.000000 0.000000 0.000000 1.570796 0.000000 0.000000
    59 0.000000 0.000000 0.000000 1.570796 0.000000 0.000000
    60 0.000000 0.000000 0.000000 1.570796 0.000000 0.000000
    61 0.000000 0.000000 0.000000 1.570796 0.000000 0.000000
    62 0.000000 0.000001 0.000000 0.000000 0.000000 0.000000
    63 0.000000 0.000000 0.000000 0.000000 0.000000 0.000000
    64 0.000000 0.000000 0.000000 -3.141593 0.000000 0.000000
    65 0.000000 0.000000 0.000000 -1.570796 0.000000 0.000000
    66 0.000000 0.000000 0.000000 -1.570796 0.000000 0.000000
    67 0.000000 0.000000 0.000000 -1.570796 0.000000 0.000000
    68 0.000000 0.000000 0.000000 1.570796 0.000000 0.000000
    69 0.000000 0.000000 0.000000 1.570796 0.000000 0.000000
    70 0.000000 0.000000 0.000000 1.570796 0.000000 0.000000
    71 0.000000 0.000000 0.000001 1.570796 0.000000 0.000000
    72 0.000000 0.000000 0.000000 1.570796 0.000000 0.000000
    73 0.000000 0.000000 0.000000 1.570796 0.000000 0.000000
    74 0.000000 0.000000 0.000000 1.570796 0.000000 0.000000
    75 0.000000 0.000000 0.000000 1.570796 0.000000 0.000000
    76 -0.000001 0.000000 0.000000 1.570796 0.000000 0.000000
    77 0.000000 0.000000 0.000000 1.570796 0.000000 0.000000
    78 0.000000 0.000000 0.000000 1.570796 0.000000 0.000000
    79 0.000000 0.000000 0.000000 1.570796 0.000000 0.000000
  time 13
    0 -5.490590 -8.630031 -4.550036 -1.397746 -0.312136 0.994062
    1 7.195313 4.312500 -6.410156 -0.275968 0.424923 -1.104175
    2 0.000000 0.000000 0.000000 3.054330 0.090256 0.753241
    3 10.859747 -0.000001 -0.000001 0.275704 0.008723 1.847034
    4 11.118949 -0.012917 -0.055607 0.960924 -0.148117 0.638437
    5 4.462505 0.096129 -1.190233 1.739333 0.120053 0.008192
    6 1.533205 -0.000001 -0.000001 0.002378 0.237742 0.007700
    7 0.922225 0.000000 0.000000 0.000178 0.155218 0.001714
    8 4.581339 -0.202365 -0.322599 1.515947 0.022305 0.249658
    9 1.706794 -0.000006 0.000000 0.015137 0.310580 0.007581
    10 0.995784 0.000001 0.000000 0.028611 0.470533 -0.001070
    11 4.329579 -0.047878 0.601895 1.339628 -0.038289 0.266280
    12 1.571783 0.000002 0.000005 0.026105 0.347182 0.022892
    13 1.038471 0.000006 0.000000 0.006843 0.636934 0.018325
    14 3.871905 0.337152 1.438553 1.370855 -0.116575 0.163758
    15 1.197247 -0.000007 -0.000013 0.071682 0.306610 0.060926
    16 0.862615 0.000000 0.000000 -0.009004 0.471916 -0.000955
    17 1.188218 1.062015 -1.188354 3.061384 0.567106 0.123745
    18 1.984254 -0.000001 0.000000 -0.030931 0.576959 -0.106485
    19 1.217773 0.000004 0.000002 -0.020700 -0.169366 0.027834
    20 9.582013 0.082096 -0.005725 1.619755 -0.777623 1.473374
    21 -1.511719 11.007813 -4.187500 1.244308 0.425693 -2.037295
    22 0.000000 0.000000 0.000000 2.853022 0.001774 -0.132845
    23 10.859730 0.000013 -0.000005 -0.261904 0.005507 -0.834477
    24 11.118959 0.012915 -0.055609 0.016708 0.301618 -0.851777
    25 4.462496 -0.096127 -1.190239 -1.668406 0.088949 -0.186373
    26 1.533207 0.000003 0.000000 -0.001689 -0.098651 -0.007557
    27 0.922219 0.000000 0.000000 -0.000168 -0.072656 -0.001706
    28 3.871094 -0.338867 1.439453 -1.480019 0.189903 -1.416936
    29 1.197266 0.000004 -0.000017 -0.127146 1.001777 -0.146524
    30 0.866211 -0.000001 -0.000003 0.009351 0.733784 0.001142
    31 4.582031 0.205322 -0.326172 -1.539698 0.007204 -1.420212
    32 1.709961 0.000006 -0.000002 -0.026879 1.095842 -0.020771
    33 0.998047 -0.000001 0.000001 -0.016608 0.557664 0.006715
    34 4.332031 0.048065 0.604980 -1.502394 0.106974 -1.508525
    35 1.571289 0.000006 -0.000001 -0.060351 1.044535 -0.069431
    36 1.039063 -0.000008 0.000001 -0.009609 0.637010 -0.018240
    37 1.191406 -1.062500 -1.191406 2.688815 0.147029 -0.438545
    38 1.987305 0.000004 0.000002 0.027278 0.315271 0.098085
    39 1.217773 -0.000005 0.000003 0.021152 0.266873 -0.018769
    40 9.578125 -0.084412 -0.006874 -1.606853 -0.254477 -1.498648
    41 -0.871094 11.210938 -11.585938 0.000000 0.000000 -0.000001
    42 -5.722198 -9.572404 -1.723951 -1.397746 -0.312136 0.994062
    43 -6.058012 -13.298143 8.523551 -1.397746 -0.312136 0.994062
    44 0.000000 0.000000 0.000000 0.000000 0.000000 0.000000
    45 0.000000 0.000000 0.000000 0.000000 0.000000 0.000000
    46 0.000000 0.000000 0.000000 0.000000 0.000000 0.000000
    47 0.000000 0.000000 0.000000 -1.570796 0.000000 0.000000
    48 0.000000 0.000000 0.000000 -1.570796 0.000000 0.000000
    49 0.000000 0.000000 0.000000 -1.570796 0.000000 0.000000
    50 0.000000 0.000000 0.000000 1.570796 0.000000 0.000000
    51 0.000000 0.000000 0.000000 1.570796 0.000000 0.000000
    52 0.000000 0.000000 0.000000 1.570796 0.000000 0.000000
    53 0.000000 0.000000 0.000000 1.570796 0.000000 0.000000
    54 0.000000 0.000000 0.000000 1.570796 0.000000 0.000000
    55 0.000000 0.000000 0.000000 1.570796 0.000000 0.000000
    56 0.000000 0.000000 0.000000 1.570796 0.000000 0.000000
    57 0.000000 0.000000 0.000000 1.570796 0.000000 0.000000
    58 0.000000 0.000000 0.000000 1.570796 0.000000 0.000000
    59 0.000000 0.000000 0.000000 1.570796 0.000000 0.000000
    60 0.000000 0.000000 0.000000 1.570796 0.000000 0.000000
    61 0.000000 0.000000 0.000000 1.570796 0.000000 0.000000
    62 0.000000 0.000001 0.000000 0.000000 0.000000 0.000000
    63 0.000000 0.000000 0.000000 0.000000 0.000000 0.000000
    64 0.000000 0.000000 0.000000 -3.141593 0.000000 0.000000
    65 0.000000 0.000000 0.000000 -1.570796 0.000000 0.000000
    66 0.000000 0.000000 0.000000 -1.570796 0.000000 0.000000
    67 0.000000 0.000000 0.000000 -1.570796 0.000000 0.000000
    68 0.000000 0.000000 0.000000 1.570796 0.000000 0.000000
    69 0.000000 0.000000 0.000000 1.570796 0.000000 0.000000
    70 0.000000 0.000000 0.000000 1.570796 0.000000 0.000000
    71 0.000000 0.000000 0.000001 1.570796 0.000000 0.000000
    72 0.000000 0.000000 0.000000 1.570796 0.000000 0.000000
    73 0.000000 0.000000 0.000000 1.570796 0.000000 0.000000
    74 0.000000 0.000000 0.000000 1.570796 0.000000 0.000000
    75 0.000000 0.000000 0.000000 1.570796 0.000000 0.000000
    76 -0.000001 0.000000 0.000000 1.570796 0.000000 0.000000
    77 0.000000 0.000000 0.000000 1.570796 0.000000 0.000000
    78 0.000000 0.000000 0.000000 1.570796 0.000000 0.000000
    79 0.000000 0.000000 0.000000 1.570796 0.000000 0.000000
  time 14
    0 -5.674189 -8.731597 -4.772699 -1.412863 -0.314339 1.036606
    1 7.195313 4.312500 -6.410156 -0.275968 0.424923 -1.104175
    2 0.000000 0.000000 0.000000 3.176153 0.167440 0.754767
    3 10.859747 -0.000001 -0.000001 0.275513 0.008783 1.832003
    4 11.118949 -0.012917 -0.055607 1.126846 -0.129129 0.572840
    5 4.462505 0.096129 -1.190233 1.739333 0.120053 0.008192
    6 1.533205 -0.000001 -0.000001 0.002378 0.237742 0.007712
    7 0.922225 0.000000 0.000000 0.000178 0.155218 0.001714
    8 4.581339 -0.202365 -0.322599 1.515947 0.022305 0.249658
    9 1.706794 -0.000006 0.000000 0.015137 0.310580 0.007581
    10 0.995784 0.000001 0.000000 0.028623 0.470533 -0.001070
    11 4.329579 -0.047878 0.601895 1.339628 -0.038301 0.266280
    12 1.571783 0.000002 0.000005 0.026105 0.347182 0.022892
    13 1.038471 0.000006 0.000000 0.006855 0.636934 0.018325
    14 3.871905 0.337152 1.438553 1.370843 -0.116588 0.163758
    15 1.197247 -0.000007 -0.000013 0.071682 0.306610 0.060926
    16 0.862615 0.000000 0.000000 -0.009004 0.471916 -0.000955
    17 1.188218 1.062015 -1.188354 3.061384 0.567106 0.123745
    18 1.984254 -0.000001 0.000000 -0.030931 0.576927 -0.106497
    19 1.217773 0.000004 0.000002 -0.020700 -0.169366 0.027834
    20 9.582013 0.082096 -0.005725 1.619755 -0.777623 1.473374
    21 -1.511719 11.007813 -4.187500 1.244308 0.425693 -2.037295
    22 0.000000 0.000000 0.000000 2.864419 0.011651 -0.116428
    23 10.859730 0.000013 -0.000005 -0.261293 0.004920 -0.776135
    24 11.118959 0.012915 -0.055609 0.033844 0.297518 -0.914938
    25 4.462496 -0.096127 -1.190239 -1.667507 0.090315 -0.173909
    26 1.533207 0.000003 0.000000 -0.001689 -0.108035 -0.007557
    27 0.922219 0.000000 0.000000 -0.000168 -0.097689 -0.001706
    28 3.871094 -0.338867 1.439453 -1.480019 0.189903 -1.416936
    29 1.197266 0.000004 -0.000017 -0.127146 1.001777 -0.146524
    30 0.866211 -0.000001 -0.000003 0.009351 0.733784 0.001142
    31 4.582031 0.205322 -0.326172 -1.539698 0.007204 -1.420212
    32 1.709961 0.000006 -0.000002 -0.026879 1.095842 -0.020771
    33 0.998047 -0.000001 0.000001 -0.016608 0.557664 0.006715
    34 4.332031 0.048065 0.604980 -1.502394 0.106974 -1.508525
    35 1.571289 0.000006 -0.000001 -0.060351 1.044535 -0.069431
    36 1.039063 -0.000008 0.000001 -0.009609 0.637010 -0.018240
    37 1.191406 -1.062500 -1.191406 2.688815 0.147029 -0.438545
    38 1.987305 0.000004 0.000002 0.027278 0.315271 0.098085
    39 1.217773 -0.000005 0.000003 0.021152 0.266873 -0.018769
    40 9.578125 -0.084412 -0.006874 -1.606853 -0.254477 -1.498648
    41 -0.871094 11.210938 -11.585938 0.000000 0.000000 -0.000001
    42 -5.909703 -9.670063 -1.950520 -1.412863 -0.314339 1.036606
    43 -6.245518 -13.348925 8.324326 -1.412863 -0.314339 1.036606
    44 0.000000 0.000000 0.000000 0.000000 0.000000 0.000000
    45 0.000000 0.000000 0.000000 0.000000 0.000000 0.000000
    46 0.000000 0.000000 0.000000 0.000000 0.000000 0.000000
    47 0.000000 0.000000 0.000000 -1.570796 0.000000 0.000000
    48 0.000000 0.000000 0.000000 -1.570796 0.000000 0.000000
    49 0.000000 0.000000 0.000000 -1.570796 0.000000 0.000000
    50 0.000000 0.000000 0.000000 1.570796 0.000000 0.000000
    51 0.000000 0.000000 0.000000 1.570796 0.000000 0.000000
    52 0.000000 0.000000 0.000000 1.570796 0.000000 0.000000
    53 0.000000 0.000000 0.000000 1.570796 0.000000 0.000000
    54 0.000000 0.000000 0.000000 1.570796 0.000000 0.000000
    55 0.000000 0.000000 0.000000 1.570796 0.000000 0.000000
    56 0.000000 0.000000 0.000000 1.570796 0.000000 0.000000
    57 0.000000 0.000000 0.000000 1.570796 0.000000 0.000000
    58 0.000000 0.000000 0.000000 1.570796 0.000000 0.000000
    59 0.000000 0.000000 0.000000 1.570796 0.000000 0.000000
    60 0.000000 0.000000 0.000000 1.570796 0.000000 0.000000
    61 0.000000 0.000000 0.000000 1.570796 0.000000 0.000000
    62 0.000000 0.000001 0.000000 0.000000 0.000000 0.000000
    63 0.000000 0.000000 0.000000 0.000000 0.000000 0.000000
    64 0.000000 0.000000 0.000000 -3.141593 0.000000 0.000000
    65 0.000000 0.000000 0.000000 -1.570796 0.000000 0.000000
    66 0.000000 0.000000 0.000000 -1.570796 0.000000 0.000000
    67 0.000000 0.000000 0.000000 -1.570796 0.000000 0.000000
    68 0.000000 0.000000 0.000000 1.570796 0.000000 0.000000
    69 0.000000 0.000000 0.000000 1.570796 0.000000 0.000000
    70 0.000000 0.000000 0.000000 1.570796 0.000000 0.000000
    71 0.000000 0.000000 0.000001 1.570796 0.000000 0.000000
    72 0.000000 0.000000 0.000000 1.570796 0.000000 0.000000
    73 0.000000 0.000000 0.000000 1.570796 0.000000 0.000000
    74 0.000000 0.000000 0.000000 1.570796 0.000000 0.000000
    75 0.000000 0.000000 0.000000 1.570796 0.000000 0.000000
    76 -0.000001 0.000000 0.000000 1.570796 0.000000 0.000000
    77 0.000000 0.000000 0.000000 1.570796 0.000000 0.000000
    78 0.000000 0.000000 0.000000 1.570796 0.000000 0.000000
    79 0.000000 0.000000 0.000000 1.570796 0.000000 0.000000
  time 15
    0 -5.744504 -8.770661 -4.862546 -1.417754 -0.315022 1.052107
    1 7.195313 4.312500 -6.410156 -0.275968 0.424923 -1.104175
    2 0.000000 0.000000 0.000000 3.226441 0.207026 0.741687
    3 10.859747 -0.000001 -0.000001 0.275081 0.008891 1.802543
    4 11.118949 -0.012917 -0.055607 1.200642 -0.117456 0.553494
    5 4.462505 0.096129 -1.190233 1.739333 0.120053 0.008192
    6 1.533205 -0.000001 -0.000001 0.002378 0.237710 0.007700
    7 0.922225 0.000000 0.000000 0.000178 0.155218 0.001714
    8 4.581339 -0.202365 -0.322599 1.515947 0.022305 0.249658
    9 1.706794 -0.000006 0.000000 0.015137 0.310580 0.007581
    10 0.995784 0.000001 0.000000 0.028623 0.470498 -0.001070
    11 4.329579 -0.047878 0.601895 1.339628 -0.038301 0.266280
    12 1.571783 0.000002 0.000005 0.026105 0.347182 0.022892
    13 1.038471 0.000006 0.000000 0.006843 0.636934 0.018325
    14 3.871905 0.337152 1.438553 1.370855 -0.116588 0.163758
    15 1.197247 -0.000007 -0.000013 0.071682 0.306610 0.060926
    16 0.862615 0.000000 0.000000 -0.009004 0.471916 -0.000955
    17 1.188218 1.062015 -1.188354 3.061384 0.567106 0.123745
    18 1.984254 -0.000001 0.000000 -0.030931 0.576927 -0.106485
    19 1.217773 0.000004 0.000002 -0.020700 -0.169366 0.027834
    20 9.582013 0.082096 -0.005725 1.619755 -0.777623 1.473374
    21 -1.511719 11.007813 -4.187500 1.244308 0.425693 -2.037295
    22 0.000000 0.000000 0.000000 2.868985 0.015365 -0.109932
    23 10.859730 0.000013 -0.000005 -0.261065 0.004680 -0.753263
    24 11.118959 0.012915 -0.055609 0.039842 0.295154 -0.939132
    25 4.462496 -0.096127 -1.190239 -1.667171 0.090819 -0.169462
    26 1.533207 0.000003 0.000000 -0.001689 -0.111354 -0.007557
    27 0.922219 0.000000 0.000000 -0.000168 -0.106573 -0.001706
    28 3.871094 -0.338867 1.439453 -1.480019 0.189903 -1.416936
    29 1.197266 0.000004 -0.000017 -0.127146 1.001777 -0.146524
    30 0.866211 -0.000001 -0.000003 0.009351 0.733784 0.001142
    31 4.582031 0.205322 -0.326172 -1.539698 0.007204 -1.420212
    32 1.709961 0.000006 -0.000002 -0.026879 1.095842 -0.020771
    33 0.998047 -0.000001 0.000001 -0.016608 0.557664 0.006715
    34 4.332031 0.048065 0.604980 -1.502394 0.106974 -1.508525
    35 1.571289 0.000006 -0.000001 -0.060351 1.044535 -0.069431
    36 1.039063 -0.000008 0.000001 -0.009609 0.637010 -0.018240
    37 1.191406 -1.062500 -1.191406 2.688815 0.147029 -0.438545
    38 1.987305 0.000004 0.000002 0.027278 0.315271 0.098085
    39 1.217773 -0.000005 0.000003 0.021152 0.266873 -0.018769
    40 9.578125 -0.084412 -0.006874 -1.606853 -0.254477 -1.498648
    41 -0.871094 11.210938 -11.585938 0.000000 0.000000 -0.000001
    42 -5.980018 -9.709127 -2.036460 -1.417754 -0.315022 1.052107
    43 -6.304114 -13.372364 8.238386 -1.417754 -0.315022 1.052107
    44 0.000000 0.000000 0.000000 0.000000 0.000000 0.000000
    45 0.000000 0.000000 0.000000 0.000000 0.000000 0.000000
    46 0.000000 0.000000 0.000000 0.000000 0.000000 0.000000
    47 0.000000 0.000000 0.000000 -1.570796 0.000000 0.000000
    48 0.000000 0.000000 0.000000 -1.570796 0.000000 0.000000
    49 0.000000 0.000000 0.000000 -1.570796 0.000000 0.000000
    50 0.000000 0.000000 0.000000 1.570796 0.000000 0.000000
    51 0.000000 0.000000 0.000000 1.570796 0.000000 0.000000
    52 0.000000 0.000000 0.000000 1.570796 0.000000 0.000000
    53 0.000000 0.000000 0.000000 1.570796 0.000000 0.000000
    54 0.000000 0.000000 0.000000 1.570796 0.000000 0.000000
    55 0.000000 0.000000 0.000000 1.570796 0.000000 0.000000
    56 0.000000 0.000000 0.000000 1.570796 0.000000 0.000000
    57 0.000000 0.000000 0.000000 1.570796 0.000000 0.000000
    58 0.000000 0.000000 0.000000 1.570796 0.000000 0.000000
    59 0.000000 0.000000 0.000000 1.570796 0.000000 0.000000
    60 0.000000 0.000000 0.000000 1.570796 0.000000 0.000000
    61 0.000000 0.000000 0.000000 1.570796 0.000000 0.000000
    62 0.000000 0.000001 0.000000 0.000000 0.000000 0.000000
    63 0.000000 0.000000 0.000000 0.000000 0.000000 0.000000
    64 0.000000 0.000000 0.000000 -3.141593 0.000000 0.000000
    65 0.000000 0.000000 0.000000 -1.570796 0.000000 0.000000
    66 0.000000 0.000000 0.000000 -1.570796 0.000000 0.000000
    67 0.000000 0.000000 0.000000 -1.570796 0.000000 0.000000
    68 0.000000 0.000000 0.000000 1.570796 0.000000 0.000000
    69 0.000000 0.000000 0.000000 1.570796 0.000000 0.000000
    70 0.000000 0.000000 0.000000 1.570796 0.000000 0.000000
    71 0.000000 0.000000 0.000001 1.570796 0.000000 0.000000
    72 0.000000 0.000000 0.000000 1.570796 0.000000 0.000000
    73 0.000000 0.000000 0.000000 1.570796 0.000000 0.000000
    74 0.000000 0.000000 0.000000 1.570796 0.000000 0.000000
    75 0.000000 0.000000 0.000000 1.570796 0.000000 0.000000
    76 -0.000001 0.000000 0.000000 1.570796 0.000000 0.000000
    77 0.000000 0.000000 0.000000 1.570796 0.000000 0.000000
    78 0.000000 0.000000 0.000000 1.570796 0.000000 0.000000
    79 0.000000 0.000000 0.000000 1.570796 0.000000 0.000000
end
